<?xml version="1.0" encoding="utf-8"?>
<!-- Generator: Adobe Illustrator 25.1.0, SVG Export Plug-In . SVG Version: 6.00 Build 0)  -->
<svg version="1.1" id="Layer_1" xmlns="http://www.w3.org/2000/svg" xmlns:xlink="http://www.w3.org/1999/xlink" x="0px" y="0px"
	 viewBox="0 0 950 700" style="enable-background:new 0 0 950 700;" xml:space="preserve">
<style type="text/css">
	.st0{clip-path:url(#SVGID_2_);}
	.st1{opacity:0.49;}
	.st2{opacity:0.28;}
	.st3{clip-path:url(#SVGID_4_);}
	.st4{fill:url(#SVGID_5_);}
	.st5{fill:url(#SVGID_6_);}
	.st6{fill:url(#SVGID_7_);}
	.st7{fill:url(#SVGID_8_);}
	.st8{fill:url(#SVGID_9_);}
	.st9{fill:url(#SVGID_10_);}
	.st10{fill:url(#SVGID_11_);}
	.st11{fill:url(#SVGID_12_);}
	.st12{fill:url(#SVGID_13_);}
	.st13{fill:url(#SVGID_14_);}
	.st14{fill:url(#SVGID_15_);}
	.st15{fill:url(#SVGID_16_);}
	.st16{fill:url(#SVGID_17_);}
	.st17{fill:url(#SVGID_18_);}
	.st18{fill:url(#SVGID_19_);}
	.st19{fill:url(#SVGID_20_);}
	.st20{fill:url(#SVGID_21_);}
	.st21{fill:url(#SVGID_22_);}
	.st22{fill:url(#SVGID_23_);}
	.st23{fill:url(#SVGID_24_);}
	.st24{fill:url(#SVGID_25_);}
	.st25{fill:url(#SVGID_26_);}
	.st26{fill:url(#SVGID_27_);}
	.st27{fill:url(#SVGID_28_);}
	.st28{fill:url(#SVGID_29_);}
	.st29{fill:url(#SVGID_30_);}
	.st30{fill:url(#SVGID_31_);}
	.st31{fill:url(#SVGID_32_);}
	.st32{fill:url(#SVGID_33_);}
	.st33{fill:url(#SVGID_34_);}
	.st34{fill:url(#SVGID_35_);}
	.st35{fill:url(#SVGID_36_);}
	.st36{fill:url(#SVGID_37_);}
	.st37{fill:url(#SVGID_38_);}
	.st38{fill:url(#SVGID_39_);}
	.st39{fill:url(#SVGID_40_);}
	.st40{fill:url(#SVGID_41_);}
	.st41{fill:url(#SVGID_42_);}
	.st42{fill:url(#SVGID_43_);}
	.st43{fill:url(#SVGID_44_);}
	.st44{fill:url(#SVGID_45_);}
	.st45{fill:url(#SVGID_46_);}
	.st46{fill:url(#SVGID_47_);}
	.st47{fill:url(#SVGID_48_);}
	.st48{fill:url(#SVGID_49_);}
	.st49{fill:url(#SVGID_50_);}
	.st50{fill:url(#SVGID_51_);}
	.st51{fill:url(#SVGID_52_);}
	.st52{fill:url(#SVGID_53_);}
	.st53{fill:url(#SVGID_54_);}
	.st54{fill:url(#SVGID_55_);}
	.st55{fill:url(#SVGID_56_);}
	.st56{fill:url(#SVGID_57_);}
	.st57{fill:url(#SVGID_58_);}
	.st58{fill:url(#SVGID_59_);}
	.st59{fill:url(#SVGID_60_);}
	.st60{fill:url(#SVGID_61_);}
	.st61{fill:url(#SVGID_62_);}
	.st62{clip-path:url(#SVGID_64_);}
	.st63{opacity:0.7;}
	.st64{fill:url(#SVGID_65_);}
	.st65{fill:url(#SVGID_66_);}
	.st66{fill:url(#SVGID_67_);}
	.st67{fill:url(#SVGID_68_);}
	.st68{fill:url(#SVGID_69_);}
	.st69{fill:url(#SVGID_70_);}
	.st70{fill:url(#SVGID_71_);}
	.st71{fill:url(#SVGID_72_);}
	.st72{fill:url(#SVGID_73_);}
	.st73{fill:url(#SVGID_74_);}
	.st74{fill:url(#SVGID_75_);}
	.st75{fill:url(#SVGID_76_);}
	.st76{fill:url(#SVGID_77_);}
	.st77{opacity:0.35;}
	.st78{fill:url(#SVGID_78_);}
	.st79{fill:url(#SVGID_79_);}
	.st80{fill:url(#SVGID_80_);}
	.st81{fill:url(#SVGID_81_);}
	.st82{fill:url(#SVGID_82_);}
	.st83{fill:url(#SVGID_83_);}
	.st84{fill:url(#SVGID_84_);}
	.st85{fill:url(#SVGID_85_);}
	.st86{fill:url(#SVGID_86_);}
	.st87{fill:url(#SVGID_87_);}
	.st88{fill:url(#SVGID_88_);}
	.st89{fill:url(#SVGID_89_);}
	.st90{fill:url(#SVGID_90_);}
	.st91{fill:url(#SVGID_91_);}
	.st92{fill:url(#SVGID_92_);}
</style>
<g>
	<defs>
		<rect id="SVGID_1_" width="950" height="700"/>
	</defs>
	<clipPath id="SVGID_2_">
		<use xlink:href="#SVGID_1_"  style="overflow:visible;"/>
	</clipPath>
	<g class="st0">
		<g id="Layer_2_1_">
			<g id="Object">
				<g class="st1">
					<g class="st2">
						<defs>
							<rect id="SVGID_3_" x="160.8" y="-7.5" class="st2" width="900.9" height="707.2"/>
						</defs>
						<clipPath id="SVGID_4_">
							<use xlink:href="#SVGID_3_"  style="overflow:visible;"/>
						</clipPath>
						<g class="st3">
							
								<linearGradient id="SVGID_5_" gradientUnits="userSpaceOnUse" x1="-769.456" y1="505.8887" x2="63.454" y2="1078.6187" gradientTransform="matrix(0 -1 1 0 -246.24 -159.13)">
								<stop  offset="0" style="stop-color:#FFFFFF"/>
								<stop  offset="0.47" style="stop-color:#000000"/>
								<stop  offset="1" style="stop-color:#FFFFFF"/>
							</linearGradient>
							<path class="st4" d="M396.1,632.6c1.8,32.8,20.5,61,39,87h1c-30.5-41.4-47.6-77.4-35.7-129.7
								c24.8-108.8,108.5-212.7,74-328.7c-10.6-36.8-36.6-65.7-53.2-99.5c-34.5-68.1,4.2-143.3,36.6-204.4H457
								C292.2,253,602.2,134.3,422.9,517.3C408.6,554,393.7,592.5,396.1,632.6z"/>
							
								<linearGradient id="SVGID_6_" gradientUnits="userSpaceOnUse" x1="-774.5315" y1="512.0967" x2="58.5385" y2="1084.9368" gradientTransform="matrix(0 -1 1 0 -246.24 -159.13)">
								<stop  offset="0" style="stop-color:#FFFFFF"/>
								<stop  offset="0.47" style="stop-color:#000000"/>
								<stop  offset="1" style="stop-color:#FFFFFF"/>
							</linearGradient>
							<path class="st5" d="M410,666.2c10,19.2,23.1,36,35.8,53.4h1c-72.2-88.4-58.1-138.8-11.5-235c62.4-130.8,82-195-4-320.5
								c-38.5-68.4,3.4-144.4,35.1-206.7h-0.8C433.9,19.6,392,96,430.5,164.5c72.3,108.6,73.6,166.2,19.7,285.1
								C420.8,516.5,370.7,593.2,410,666.2z"/>
							
								<linearGradient id="SVGID_7_" gradientUnits="userSpaceOnUse" x1="-779.7078" y1="518.4213" x2="53.5623" y2="1091.4014" gradientTransform="matrix(0 -1 1 0 -246.24 -159.13)">
								<stop  offset="0" style="stop-color:#FFFFFF"/>
								<stop  offset="0.47" style="stop-color:#000000"/>
								<stop  offset="1" style="stop-color:#FFFFFF"/>
							</linearGradient>
							<path class="st6" d="M401.1,632c10.8,33.7,35.4,59.8,55.9,87.6h1c-28.5-37.3-62.9-75.8-62-125.8
								c-1.4-25.6,7.1-50.9,18.9-73.4c16.2-34.5,35.7-67.3,51.7-101.9c25.1-51.4,40.1-112.4,20.6-168.2
								c-12.3-36.5-38.4-65.8-53.5-100.8C405,83.3,447.8,16.2,475.2-42.7h-0.8c-25,54.1-62.7,112.2-47.9,174.2
								c9.5,37.5,36.3,66.9,52.3,101.5c28.9,59.1,14.4,128.3-13.5,184.9c-16,34.6-35.4,67.4-51.5,102
								C395,553.6,388.9,594.9,401.1,632z"/>
							
								<linearGradient id="SVGID_8_" gradientUnits="userSpaceOnUse" x1="-785.0131" y1="524.9045" x2="48.4369" y2="1098.0145" gradientTransform="matrix(0 -1 1 0 -246.24 -159.13)">
								<stop  offset="0" style="stop-color:#FFFFFF"/>
								<stop  offset="0.47" style="stop-color:#000000"/>
								<stop  offset="1" style="stop-color:#FFFFFF"/>
							</linearGradient>
							<path class="st7" d="M394.9,596c6.4,49.9,44.7,85.3,73.3,123.6h1c-21.1-28.8-47-54.2-62.4-86.9c-15.8-34.7-18-77.9,2.4-111.2
								c22.7-44.9,53.3-88,73.8-134.1c19.1-42.4,26.8-92.5,12-137.6c-11.5-35.4-35.6-64.3-51.4-97.4C410.9,86,457.2,17.3,484.2-42.7
								h-0.7c-24.4,55.1-65.5,114.6-47.5,177.4c13,41.5,44.9,73.9,58,115.5c28.3,85.4-25.6,166.4-67.4,237
								C406,523,387.1,552.7,394.9,596z"/>
							
								<linearGradient id="SVGID_9_" gradientUnits="userSpaceOnUse" x1="-790.262" y1="531.2938" x2="43.4081" y2="1104.5438" gradientTransform="matrix(0 -1 1 0 -246.24 -159.13)">
								<stop  offset="0" style="stop-color:#FFFFFF"/>
								<stop  offset="0.47" style="stop-color:#000000"/>
								<stop  offset="1" style="stop-color:#FFFFFF"/>
							</linearGradient>
							<path class="st8" d="M412,633.5c19.1,31.3,45.9,56.7,67.6,86.1h1c-28.9-39.9-69.5-73-83.2-122C384.2,551.1,398,527,422.4,489
								c20.9-32.3,43.1-63.5,61.5-97.5c32.7-57.1,35.8-129.9-0.9-186.1c-12.5-22.5-28.1-43.2-36.8-67.7
								c-22-62.5,23.4-124.6,46.5-180.5H492c-23.3,56-68.6,118-46.6,180.8c8.7,24.6,24.3,45.3,36.7,67.9
								c36.4,55.9,33.2,128,0.7,184.8c-24.2,45.2-56.2,85.6-80.8,130.6C382.2,556,392.7,601.1,412,633.5z"/>
							
								<linearGradient id="SVGID_10_" gradientUnits="userSpaceOnUse" x1="-795.647" y1="537.8301" x2="38.263" y2="1111.2501" gradientTransform="matrix(0 -1 1 0 -246.24 -159.13)">
								<stop  offset="0" style="stop-color:#FFFFFF"/>
								<stop  offset="0.47" style="stop-color:#000000"/>
								<stop  offset="1" style="stop-color:#FFFFFF"/>
							</linearGradient>
							<path class="st9" d="M399.6,599.3c20.5,47.2,62.3,79.1,91.7,120.3h1C456,668.5,396.9,627.8,390.8,561
								c-5.3-33.8,19.7-60.7,37.3-86.7c22.6-31.1,47.1-61.6,65.8-95.4c21.9-40.2,30.7-89.6,16-133.8c-8-25-22.1-47.2-35.6-69.4
								c-13.7-21.8-26.4-46-26.2-72.5c2.7-52.6,34-98.2,53.3-145.8h-0.7C481.3,5,450,50.6,447.3,103.2c3.3,86.7,107,124.4,54,257.5
								c-23.7,53.2-65.3,95.7-95.7,144.8C383.8,532.2,386.6,569.4,399.6,599.3z"/>
							
								<linearGradient id="SVGID_11_" gradientUnits="userSpaceOnUse" x1="-800.991" y1="544.3059" x2="33.169" y2="1117.876" gradientTransform="matrix(0 -1 1 0 -246.24 -159.13)">
								<stop  offset="0" style="stop-color:#FFFFFF"/>
								<stop  offset="0.47" style="stop-color:#000000"/>
								<stop  offset="1" style="stop-color:#FFFFFF"/>
							</linearGradient>
							<path class="st10" d="M387.8,553.2c10.3,70.8,77.1,111,115.1,166.5h1c-39.3-57.9-111.8-100.7-116-176.6
								c-1.2-26.8,20.1-47.8,34.7-68.1c20.3-25,41.7-49.6,60.8-75.6c32.2-41.5,50.8-97.2,36.4-149.2c-6.8-25.7-20.4-48.6-34.1-71
								c-13.8-22-28.4-45.2-29.3-72.1c-1.1-26.8,10.3-51.7,20.6-75.8c10.7-24.4,22.9-49.5,33.2-73.9h-0.7
								C499-18.2,486.9,6.8,476.2,31.1c-10.4,24.1-21.9,49.3-20.8,76.2c1.8,40.9,32,71.4,48.8,106.7c51.2,97.7-7.9,173-70.3,245.3
								c-7.2,8.5-17.7,21.5-24,30.5C396,507.7,382.4,529.4,387.8,553.2z"/>
							
								<linearGradient id="SVGID_12_" gradientUnits="userSpaceOnUse" x1="-806.3428" y1="550.7686" x2="28.0672" y2="1124.5186" gradientTransform="matrix(0 -1 1 0 -246.24 -159.13)">
								<stop  offset="0" style="stop-color:#FFFFFF"/>
								<stop  offset="0.47" style="stop-color:#000000"/>
								<stop  offset="1" style="stop-color:#FFFFFF"/>
							</linearGradient>
							<path class="st11" d="M390.6,564.5c13.4,37.9,43.4,65.5,70.6,93.5c18.9,19.3,37.5,39.5,53.3,61.5h1
								c-15.9-22.3-34.6-42.7-53.7-62.2c-35-36.1-80-77.5-75.8-132.5c1.6-13.3,10-24.3,18.1-34.3c24-30.9,52.8-57.6,77.8-87.6
								c38.7-42,61.9-102.8,44.3-159.4c-10.1-34.7-32.3-63.4-49.6-94.5c-22.4-37.4-9.8-78.1,7.8-114.5
								c11.1-25.5,23.7-51.5,34.2-77.3h-0.7c-15.3,38.3-35.5,75-49,114.1c-32.8,95.3,97.2,134.1,53,263.8
								c-22.8,62.6-79.7,102.7-118.7,154.5C382.6,512.1,380,536.3,390.6,564.5z"/>
							
								<linearGradient id="SVGID_13_" gradientUnits="userSpaceOnUse" x1="-811.7314" y1="557.2667" x2="22.9486" y2="1131.1967" gradientTransform="matrix(0 -1 1 0 -246.24 -159.13)">
								<stop  offset="0" style="stop-color:#FFFFFF"/>
								<stop  offset="0.47" style="stop-color:#000000"/>
								<stop  offset="1" style="stop-color:#FFFFFF"/>
							</linearGradient>
							<path class="st12" d="M385.5,546.5c18.6,58.3,74,92.2,112,137.1c10.2,11.5,19.9,23.6,28.9,36h1
								c-16.6-23.5-36.1-45.1-56.5-65.2c-37.6-37.5-121-108-73.8-164.4c48.7-60.6,128.6-104.2,141.1-187.2
								c7.3-40.8-7.9-81.7-29.3-115.8c-17.1-28-40.5-56.6-35.8-91.5c2.3-20.2,11-38.9,19.2-57.3c11.5-26.6,24.7-53.7,35.2-80.8h-0.7
								c-15.2,39.9-36.5,77.6-50.3,118c-15.8,42.4,9.5,78.3,31.7,112.3c30.2,47.3,41.9,101.1,17.4,153.6
								c-22.3,48.5-66.2,81.3-102.6,118.6C398.7,484.7,371.5,508.5,385.5,546.5z"/>
							
								<linearGradient id="SVGID_14_" gradientUnits="userSpaceOnUse" x1="-817.0808" y1="563.7212" x2="17.8492" y2="1137.8412" gradientTransform="matrix(0 -1 1 0 -246.24 -159.13)">
								<stop  offset="0" style="stop-color:#FFFFFF"/>
								<stop  offset="0.47" style="stop-color:#000000"/>
								<stop  offset="1" style="stop-color:#FFFFFF"/>
							</linearGradient>
							<path class="st13" d="M396.2,565.5c21.9,34,54.5,58.2,82.8,86.3c21.4,20.4,42,43.5,59,67.7h0.9
								c-24.7-35.8-56.4-66.5-88.4-95.7c-29-26.9-60.4-56-69.1-96.4C363.8,464.7,526.7,408,544,309.8c10.3-40.7-1.9-83.4-23.4-118.4
								c-13.3-23.4-32.3-44.2-38.4-71.1c-6.2-27.3,6.2-54.2,17.4-78.5c12.1-27.8,25.9-56,36.4-84.5h-0.7
								c-10.5,28.3-24.3,56.5-36.4,84.1c-8.4,18.5-17.5,37.7-19,58.4c-3.5,66.8,86,106.4,63.1,209.7c-17.6,74.8-91.4,112-140.8,164
								C370.3,500.8,375.6,532.7,396.2,565.5z"/>
							
								<linearGradient id="SVGID_15_" gradientUnits="userSpaceOnUse" x1="-822.4169" y1="570.1456" x2="12.793" y2="1144.4456" gradientTransform="matrix(0 -1 1 0 -246.24 -159.13)">
								<stop  offset="0" style="stop-color:#FFFFFF"/>
								<stop  offset="0.47" style="stop-color:#000000"/>
								<stop  offset="1" style="stop-color:#FFFFFF"/>
							</linearGradient>
							<path class="st14" d="M400.4,564.9c46.7,54.8,110.1,93.1,149.4,154.7h0.9C518,670.2,472.1,633,428.6,593.8
								c-23.8-22.7-49.2-50.9-50.9-85.6c0.5-31.4,42.2-55,64.1-73.5c54.4-40.5,114.4-84,113.9-159.2c0.2-78.7-61.5-112-66.9-165.7
								c-1.5-22.8,8.8-44.1,18-64.2c12.9-28.9,27.3-58.3,37.6-88.2h-0.6c-10.5,29.7-24.8,59.2-37.6,87.9
								c-11.6,24.5-24.1,52.7-15.5,80.2c8.2,26.8,28.1,46.9,40.9,71.3c38.4,61.5,26.6,139.6-28.3,186.8
								c-29.5,26.9-63.1,49.4-93.7,74.9C365.3,493.3,369,521.6,400.4,564.9z"/>
							
								<linearGradient id="SVGID_16_" gradientUnits="userSpaceOnUse" x1="-827.7768" y1="576.5854" x2="7.6932" y2="1151.0753" gradientTransform="matrix(0 -1 1 0 -246.24 -159.13)">
								<stop  offset="0" style="stop-color:#FFFFFF"/>
								<stop  offset="0.47" style="stop-color:#000000"/>
								<stop  offset="1" style="stop-color:#FFFFFF"/>
							</linearGradient>
							<path class="st15" d="M377.4,519.6c12.9,36.3,44.4,61.3,72.9,85.1c41.4,33.7,81.5,70,111.2,115h0.9
								c-29.8-45.3-70-81.9-111.6-115.8c-31.7-27.1-85-68.2-73.7-115.5c11-25,37.8-38.5,58.8-54.2c52.9-35.9,115.7-71.6,126-140.9
								c5.3-31.7-2.6-64.2-17.7-92.2c-14.7-31.1-45.1-55.5-47.5-91.5c-1.1-28.7,15.2-53.6,26.1-79c10-23.3,22.4-49,30-73.2h-0.6
								c-7.6,24-20.1,49.6-30.1,72.9c-10.9,25.5-27.4,50.6-26.3,79.4c2.4,36.2,32.8,60.7,47.5,91.9c15.7,29.3,23.6,63.8,16.4,96.7
								c-12.2,65.6-74,100.1-124.6,134.8C407.2,453.1,360.2,478.1,377.4,519.6z"/>
							
								<linearGradient id="SVGID_17_" gradientUnits="userSpaceOnUse" x1="-833.1032" y1="582.9747" x2="2.6468" y2="1157.6547" gradientTransform="matrix(0 -1 1 0 -246.24 -159.13)">
								<stop  offset="0" style="stop-color:#FFFFFF"/>
								<stop  offset="0.47" style="stop-color:#000000"/>
								<stop  offset="1" style="stop-color:#FFFFFF"/>
							</linearGradient>
							<path class="st16" d="M383.3,529.2c18.3,29.8,47.5,50.5,74.4,71.7c43.9,33.8,85,71.8,115.6,118.7h0.9
								C543.6,672.3,502.3,634,458.2,600c-34.6-28.5-86.1-61.3-85.6-111.4c3.1-21.6,23.8-33.1,39.8-44.8
								c49.9-33.6,114-57.4,143.9-113c21.1-37.9,19.3-86.1-0.2-124.3c-13.7-32.6-45-55.9-50.9-91.7c-3.4-29.1,13.8-54.7,25-80.2
								c11-24.9,23.3-51,31.1-77.2h-0.7c-7.8,26-20.2,51.9-31.1,76.8c-8.7,19.5-19.9,37.8-24.3,59.1c-9.9,45.6,33.9,75.5,50,113.7
								c19.3,37.9,21.1,85.6,0,123.2c-33.5,61.9-107.6,83-160.1,124.6C366.7,473.7,365.4,501.7,383.3,529.2z"/>
							
								<linearGradient id="SVGID_18_" gradientUnits="userSpaceOnUse" x1="-838.4231" y1="589.3645" x2="-2.3931" y2="1164.2245" gradientTransform="matrix(0 -1 1 0 -246.24 -159.13)">
								<stop  offset="0" style="stop-color:#FFFFFF"/>
								<stop  offset="0.47" style="stop-color:#000000"/>
								<stop  offset="1" style="stop-color:#FFFFFF"/>
							</linearGradient>
							<path class="st17" d="M374.7,509.9c22.6,45,69.3,68.7,106.8,99.4c39.7,31.1,76,67.3,103.3,110.3h0.9
								c-27.4-43.3-63.7-79.8-103.7-111c-41-34.6-101.5-62.2-112.3-119.8c-1.8-30.4,31.5-44.7,53.5-57.8
								c59.2-32.5,135.6-60,152.8-133.4c9.4-35.6,0.3-73.8-18-105c-10.4-18.8-25.6-34.2-36.1-52.9c-21.4-33.3,0.2-70.5,15.6-101.3
								c11.8-26.6,24.4-53,32.2-81.2h-0.6c-8,28-20.5,54.3-32.3,80.8c-9,19.6-20.8,38.4-24.2,60c-6.5,46.1,40.4,74.2,54.2,114.3
								c18,39.4,15.4,88-9.1,124c-31.6,47.3-87.8,66-135,93.2C391.5,446.7,352.9,468.7,374.7,509.9z"/>
							
								<linearGradient id="SVGID_19_" gradientUnits="userSpaceOnUse" x1="-843.8009" y1="595.8159" x2="-7.5009" y2="1170.866" gradientTransform="matrix(0 -1 1 0 -246.24 -159.13)">
								<stop  offset="0" style="stop-color:#FFFFFF"/>
								<stop  offset="0.47" style="stop-color:#000000"/>
								<stop  offset="1" style="stop-color:#FFFFFF"/>
							</linearGradient>
							<path class="st18" d="M370.9,499.6c17.1,36.2,52.4,58.3,84,80.6c55.2,37.3,106.2,82.1,141.7,139.5h0.9
								c-28.1-45.3-65.8-83.5-107.7-115.6c-35.9-29.8-154.4-90.7-114.2-148.1c11.2-12.3,26.5-20,41.2-27.5
								c33-15.8,67-29.5,98.8-47.7c30.5-16.9,55.9-44.1,66.8-78c11.5-34.6,5.3-73.2-12-104.6c-9.8-19.6-25.2-35.2-37.2-53.3
								c-19.2-26.4-12.6-55.7,1.8-82.5C551.9,28.5,568.3-6,578.3-42.6h-0.6c-7.8,29.5-20.9,57.2-33.5,84.9
								c-10.6,22-25,44.2-23.9,69.6c1.7,27.4,23.3,47,38,68.2c24.7,34.8,37.1,80.6,22.9,122.1c-23.1,73.1-103.7,93.9-165.1,124.9
								C386.4,441.4,352.2,461.6,370.9,499.6z"/>
							
								<linearGradient id="SVGID_20_" gradientUnits="userSpaceOnUse" x1="-849.0487" y1="602.0626" x2="-12.4588" y2="1177.3026" gradientTransform="matrix(0 -1 1 0 -246.24 -159.13)">
								<stop  offset="0" style="stop-color:#FFFFFF"/>
								<stop  offset="0.47" style="stop-color:#000000"/>
								<stop  offset="1" style="stop-color:#FFFFFF"/>
							</linearGradient>
							<path class="st19" d="M366.8,488.8c18.3,40.6,59.4,63,94.7,86.8c57.7,37.1,110.5,84.5,146.6,144h0.9
								c-36-59.8-89.1-107.6-147-144.9c-41-25.6-147.5-95.1-71-139.9c42-22.7,88.8-34.7,130.9-57.1c27.2-14.3,50.8-36.3,63.8-64.9
								c19.5-41.3,10.7-91.6-14.4-128.4c-13.9-21.5-35.4-38.6-41.3-64.4c-5.2-26.5,10.5-50.5,21.8-73.2
								c13.6-28.9,27.2-58.2,34.8-89.4h-0.6c-7.7,31-21.2,60.3-34.8,89.1c-10.7,21.3-25,43.3-22.8,68.1c3,28.6,27.5,47.5,42.1,70.4
								c16.2,24.5,26.4,54.4,24.9,84.2c-6.8,101.3-109.5,121.2-186,154.8C382.2,435.5,351.9,454.9,366.8,488.8z"/>
							
								<linearGradient id="SVGID_21_" gradientUnits="userSpaceOnUse" x1="-854.311" y1="608.3514" x2="-17.451" y2="1183.7815" gradientTransform="matrix(0 -1 1 0 -246.24 -159.13)">
								<stop  offset="0" style="stop-color:#FFFFFF"/>
								<stop  offset="0.47" style="stop-color:#000000"/>
								<stop  offset="1" style="stop-color:#FFFFFF"/>
							</linearGradient>
							<path class="st20" d="M362.6,477.4c18.2,45.6,66.5,68,105.3,93.4c60.5,37.3,115.1,86.8,151.7,148.8h0.8
								c-36.5-62.3-91.3-112.2-151.9-149.7c-37.1-24.7-113.9-61.9-105.8-115c11.8-30.7,53.4-36.9,80.7-48
								c49.9-17.6,107.8-31.2,139.7-77.5c13-18.7,20.9-41.2,21.7-64c2.4-42.7-20.6-81.1-48.3-111.3c-23-25.4-24.6-53.6-8.1-83.1
								c19-35.9,37.2-73.7,46.5-113.7h-0.5c-7.5,32.6-21.5,63.4-36.2,93.3c-10.2,19.8-23.5,40.5-21.8,63.8
								c3.1,31.3,31.8,49.9,46.5,75.6c21,33.3,27.8,77.1,12.6,114.2c-12.8,32.5-40.7,57.7-72.1,71.7c-32.7,14.9-67,24.6-100.8,36.6
								C394.2,422.1,348.8,439.3,362.6,477.4z"/>
							
								<linearGradient id="SVGID_22_" gradientUnits="userSpaceOnUse" x1="-859.5365" y1="614.5895" x2="-22.3965" y2="1190.2095" gradientTransform="matrix(0 -1 1 0 -246.24 -159.13)">
								<stop  offset="0" style="stop-color:#FFFFFF"/>
								<stop  offset="0.47" style="stop-color:#000000"/>
								<stop  offset="1" style="stop-color:#FFFFFF"/>
							</linearGradient>
							<path class="st21" d="M362.5,476.4c22.2,43,72.6,64.9,111.9,89.3c63,37.7,119.6,89.5,156.6,153.9h0.8
								c-37-64.8-93.7-116.9-157-154.7c-37.6-23.5-85.1-44.6-108.6-84c-11.3-17.4-10.3-40.5,8.2-52.3
								c51.3-29.6,113.7-31.9,166.5-58.9c23.3-11.8,43.7-29.5,56.9-52.6c10.7-18.6,16.1-39.8,15.5-61.3c-1-51.9-29.6-77.6-58.5-115
								c-25.7-35.5,6.6-73.2,21-106.1c11.2-25,22-50.3,27.3-77.4h-0.5c-5.4,26.9-16.3,52.2-27.5,77c-8.9,21.2-23.4,39.8-29.1,62.4
								c-9.7,32.5,17.9,57.1,36.5,79.7c34.2,41,40.9,106,8.2,149.4c-45,62.2-129,63.7-195,90C368.5,425.5,347.1,446.5,362.5,476.4z"
								/>
							
								<linearGradient id="SVGID_23_" gradientUnits="userSpaceOnUse" x1="-864.6754" y1="620.7087" x2="-27.2853" y2="1196.5187" gradientTransform="matrix(0 -1 1 0 -246.24 -159.13)">
								<stop  offset="0" style="stop-color:#FFFFFF"/>
								<stop  offset="0.47" style="stop-color:#000000"/>
								<stop  offset="1" style="stop-color:#FFFFFF"/>
							</linearGradient>
							<path class="st22" d="M357.7,464.3c15.5,35.6,51.7,55.8,83.8,74.4c80.9,41.5,156.2,100,200.8,180.9h0.8
								C605.8,652.3,547,598,481,559.6c-35.3-20.8-74-37.8-103.1-67.4c-28.8-29.8-33.1-63.8,11.3-79.7
								c68-25.2,152.6-21.6,204.1-79.6c20.8-24.1,30.9-55.7,28-87.4c-3-42.3-29-69.9-55.3-99.9c-30.4-35.1,0.7-73.4,16.9-106.8
								c11.8-26.3,23.3-52.9,28.3-81.5h-0.5c-5.1,28.5-16.6,55-28.5,81.2c-16.5,33.7-47.3,72.3-16.8,107.8
								c27.9,31.8,54.1,60.2,55.3,105.3c1.1,27.5-7.7,54.5-24.6,76.2c-44.8,56.1-122.3,57.9-186.2,76.8
								C381.7,411,342.8,428.7,357.7,464.3z"/>
							
								<linearGradient id="SVGID_24_" gradientUnits="userSpaceOnUse" x1="-863.3569" y1="619.4399" x2="-26.3669" y2="1194.96" gradientTransform="matrix(0 -1 1 0 -246.24 -159.13)">
								<stop  offset="0" style="stop-color:#FFFFFF"/>
								<stop  offset="0.47" style="stop-color:#000000"/>
								<stop  offset="1" style="stop-color:#FFFFFF"/>
							</linearGradient>
							<path class="st23" d="M376.5,472.4c20.5,45.3,69.4,66.2,108.9,91.7c62.1,38.1,116.6,91.1,152.3,155.5h0.8
								c-35.6-64.8-90.3-118.1-152.6-156.4c-35-21.8-141.8-76.9-102.8-128.2c8.8-9.3,21-14.5,32.7-18.7
								c41.1-13.8,83.8-21.6,124.3-37.8c34.5-13.3,65-40.4,77.1-76.3c18.8-55.3-9-105.8-47.1-144.7c-32.8-34.8-18-67.9,2.6-104.2
								c15-31,31.2-62.1,38.8-96h-0.5C603.2-9,587.1,22.1,572,53c-10.4,20-23.5,40.9-22.2,64.4c2.7,31.8,32.2,50.3,48.3,75.2
								c18.2,26.7,28,60.1,22.4,92.5C603.3,381.8,491.2,389.2,415.3,415C389.4,423,363.7,442.2,376.5,472.4z"/>
							
								<linearGradient id="SVGID_25_" gradientUnits="userSpaceOnUse" x1="-862.0785" y1="618.1878" x2="-25.4985" y2="1193.4478" gradientTransform="matrix(0 -1 1 0 -246.24 -159.13)">
								<stop  offset="0" style="stop-color:#FFFFFF"/>
								<stop  offset="0.47" style="stop-color:#000000"/>
								<stop  offset="1" style="stop-color:#FFFFFF"/>
							</linearGradient>
							<path class="st24" d="M395.1,479.9c17.7,41.3,60,63.1,95.2,87.3c58.5,38.3,109.2,90.3,142.9,152.3h0.8
								c-33.7-62.4-84.6-114.8-143.2-153.3c-33.9-22.9-128.6-77.9-87.2-126.3c10.9-10,24.9-15.4,38.6-20.2
								c26.7-9.3,54-16.9,80.6-26.6c42-13.6,82.9-40.5,96.5-85c11.5-35.6,1.5-74.8-18.5-105.3c-11.5-19-28.5-33.5-41-51.7
								c-25.6-32.6-3.5-73.1,13.1-104.3c14.1-29.3,30.6-57.7,38.9-89.4h-0.5c-8.4,31.5-24.9,59.9-39,89
								c-9.6,19.6-22.2,40.4-24.8,62.4c-5.1,40.3,34.4,63.8,52.7,94.6c20.2,31,30.3,71.1,17.3,107
								c-28.9,81.8-127.1,85.1-195.3,116.1C400.1,435.8,384.9,455.7,395.1,479.9z"/>
							
								<linearGradient id="SVGID_26_" gradientUnits="userSpaceOnUse" x1="-860.8963" y1="617.0746" x2="-24.7263" y2="1192.0446" gradientTransform="matrix(0 -1 1 0 -246.24 -159.13)">
								<stop  offset="0" style="stop-color:#FFFFFF"/>
								<stop  offset="0.47" style="stop-color:#000000"/>
								<stop  offset="1" style="stop-color:#FFFFFF"/>
							</linearGradient>
							<path class="st25" d="M413.5,486.9c14.8,37.6,50.9,59.8,81.8,82.9c55,39,101.9,89.7,133.6,149.8h0.9
								C604.7,671.9,570,629.9,529.4,595c-33-31.2-152.1-92.5-107.6-147.5c13-12.5,30.5-18.5,46.9-25c25.9-10,52.3-18.8,77.6-30.3
								c32-13.5,60.6-37.5,72.9-71.1c22.6-61.7-18.1-115.6-57-159.3c-27.4-31.4-17.1-69,0.8-102.2c15.8-34.1,37.8-66.2,49-102.3
								h-0.6c-11.3,36-33.2,67.9-49,101.9c-13,25.6-26.2,56.8-12.5,84.6c12.8,26.3,36.9,44.3,51.4,69.5
								c22.7,34.9,32.2,81.8,11.1,119.8C576.4,400.9,490.3,403,430.4,439C413.5,449.1,406,468.4,413.5,486.9z"/>
							
								<linearGradient id="SVGID_27_" gradientUnits="userSpaceOnUse" x1="-859.8517" y1="616.1071" x2="-24.0617" y2="1190.807" gradientTransform="matrix(0 -1 1 0 -246.24 -159.13)">
								<stop  offset="0" style="stop-color:#FFFFFF"/>
								<stop  offset="0.47" style="stop-color:#000000"/>
								<stop  offset="1" style="stop-color:#FFFFFF"/>
							</linearGradient>
							<path class="st26" d="M431.7,493.4c17.8,47.5,65.9,71.9,100.8,105.3c37.3,34.5,69.1,75.3,92.4,121h0.8
								c-23.3-45.9-55.2-87-92.7-121.7c-32-32.3-121.8-81.9-98.3-135.9c13.3-20.5,39-27.5,60-37.6c37.2-17,78.4-29.9,106.2-61.6
								c29.7-32.9,33-83.2,12.6-122c-14.4-33.3-42.2-56.6-61.4-86.5C515.7,91,594.2,17.1,612.7-42.6h-0.6
								c-19.2,53.7-62.7,97.8-70.4,155.7c-4.2,38.2,28.2,64.3,49,91.9c36,45.8,51.6,109.7,9.5,157c-37.7,41.5-95.5,52.2-142.9,78.8
								C436.8,451.3,423.4,469.8,431.7,493.4z"/>
							
								<linearGradient id="SVGID_28_" gradientUnits="userSpaceOnUse" x1="-858.8943" y1="615.2117" x2="-23.4643" y2="1189.6617" gradientTransform="matrix(0 -1 1 0 -246.24 -159.13)">
								<stop  offset="0" style="stop-color:#FFFFFF"/>
								<stop  offset="0.47" style="stop-color:#000000"/>
								<stop  offset="1" style="stop-color:#FFFFFF"/>
							</linearGradient>
							<path class="st27" d="M449.9,499.5c14.4,44,55.8,69.7,86.6,101.4c34.5,34.7,63.1,74.8,84.8,118.7h0.8
								c-21.7-44.1-50.4-84.4-85-119.4c-29.7-32.1-106-80.8-83.4-131.5c7.1-11.8,19.4-18.8,31-25.4c29.7-15.8,60.4-29.5,88.9-47.4
								c17.4-11.1,32.8-26.1,42.5-44.5c14-25.1,15.7-56,6.2-83c-9.1-26.7-24.9-50.4-42.9-71.8c-13.2-15.9-27.8-31.3-35.5-51
								c-21.7-67.2,46.9-129.6,69.4-188.5h-0.7c-22.9,59-91.4,121.3-69.7,188.9c10.4,26.3,32.4,45,48.5,67.6
								c29,38.3,49.7,92,23.5,137.1c-8.1,15-20,28-33.7,38.2c-30.5,21.1-64.7,35.6-97.2,53.1C462.3,452.8,440.7,472.8,449.9,499.5z"
								/>
							
								<linearGradient id="SVGID_29_" gradientUnits="userSpaceOnUse" x1="-858.1261" y1="614.5734" x2="-23.0761" y2="1188.7634" gradientTransform="matrix(0 -1 1 0 -246.24 -159.13)">
								<stop  offset="0" style="stop-color:#FFFFFF"/>
								<stop  offset="0.47" style="stop-color:#000000"/>
								<stop  offset="1" style="stop-color:#FFFFFF"/>
							</linearGradient>
							<path class="st28" d="M471.2,515.3c14.3,35.3,44.9,59.7,69.7,87.3c31.3,34.7,57.1,74.6,77,117h0.8
								c-14.1-30.4-31.3-59.2-51.4-86.1c-27.4-43.8-107.5-94-98.5-149c9-32.7,81.8-58.2,110.1-82.1c22.6-15.3,40.8-38,47.8-64.6
								c7.7-27.3,1-56.8-11.9-81.3c-17.6-37.8-50.8-64.3-70.4-100.6c-31.9-73.3,42.2-136.8,69.9-198.7h-0.7
								C586,17.9,519.6,74.2,539.7,146.9c10.5,29.6,35.1,50.2,52.7,75.4c23.7,32.7,44.8,73.9,33.3,115.3
								c-14.1,54.9-71.1,78.3-114.9,105.6C482.3,458.4,455,479.7,471.2,515.3z"/>
							
								<linearGradient id="SVGID_30_" gradientUnits="userSpaceOnUse" x1="-857.5002" y1="614.0748" x2="-22.7802" y2="1188.0348" gradientTransform="matrix(0 -1 1 0 -246.24 -159.13)">
								<stop  offset="0" style="stop-color:#FFFFFF"/>
								<stop  offset="0.47" style="stop-color:#000000"/>
								<stop  offset="1" style="stop-color:#FFFFFF"/>
							</linearGradient>
							<path class="st29" d="M497.1,539.7c19.2,34,51.8,63.3,72.4,96.4c17.6,26.4,32.8,54.3,45.5,83.4h0.8
								c-12.7-29.3-27.9-57.4-45.5-84c-24-44.6-124.7-119.6-65.1-168.8c44.3-37,110-61.2,124-123.1c8.5-34.2-5.8-68.9-24.2-97.2
								c-20.2-34.9-54.7-60.5-68-99.3c-19.3-74.4,47.4-129.6,78.5-189.7h-0.7c-31.4,59.9-98.1,115.5-78.7,190
								c13.3,39,47.7,64.7,68,99.7c22.5,33.4,36.1,77.3,17.4,115.6C598,411.8,544.1,432.6,504.4,466
								C478.7,484.6,482.4,515.2,497.1,539.7z"/>
							
								<linearGradient id="SVGID_31_" gradientUnits="userSpaceOnUse" x1="-856.725" y1="613.3072" x2="-22.3349" y2="1187.0472" gradientTransform="matrix(0 -1 1 0 -246.24 -159.13)">
								<stop  offset="0" style="stop-color:#FFFFFF"/>
								<stop  offset="0.47" style="stop-color:#000000"/>
								<stop  offset="1" style="stop-color:#FFFFFF"/>
							</linearGradient>
							<path class="st30" d="M509.7,536c14.9,37.3,44,66.5,63.2,101.5c15.2,26.4,28.5,53.8,39.7,82.2h0.8
								c-11-28.4-24.8-56.1-39.8-82.6c-19-35-48.1-64.2-62.9-101.4c-12.6-28.8-3.6-51.1,20.5-69.3c34.9-30.4,80.5-56.6,96.7-102.2
								c11.5-30.8,4-65.3-12.1-92.9c-18.7-35.5-47.8-63.2-69.7-96.4c-27.8-40.6-13.9-93.9,10.4-132.6c19.6-28.7,43.5-54.2,60.5-84.9
								h-0.7c-33.7,58-95.8,106.3-85.5,180.6c6.6,40.9,40.4,68,62.6,100.5c26.7,35.8,50.9,82.6,32.6,127.6
								c-14.3,38.2-50.4,61.6-80.2,87.1C516,475.3,492.3,496.4,509.7,536z"/>
							
								<linearGradient id="SVGID_32_" gradientUnits="userSpaceOnUse" x1="-855.3984" y1="611.6378" x2="-21.2785" y2="1185.1777" gradientTransform="matrix(0 -1 1 0 -246.24 -159.13)">
								<stop  offset="0" style="stop-color:#FFFFFF"/>
								<stop  offset="0.47" style="stop-color:#000000"/>
								<stop  offset="1" style="stop-color:#FFFFFF"/>
							</linearGradient>
							<path class="st31" d="M538.6,569c28.1,48.1,54.3,97.6,72,150.6h0.8c-12-34-25.9-67.6-42.8-99.5
								c-17.6-35.8-61-85.8-38.5-126.7c21.6-28.1,51.1-49.1,73.7-76.6c15.7-16.9,27.3-38.3,30.5-61.4c5.6-33.6-10-66.4-28.3-93.5
								c-21.9-35.4-55-63.3-71.8-101.8c-14.3-35.2-4.5-75.5,13.1-107.6c20.4-34.2,50.8-60.7,71.2-95.3h-0.8
								C590.6,2.7,544.8,36,531.4,88.9c-18.3,61,14.4,98.2,50.8,142.1c26.8,35.6,58.2,76.9,50.9,124.2
								c-6.4,46.6-46.2,77.6-77.4,108.9C514.7,498.1,515.3,523.5,538.6,569z"/>
							
								<linearGradient id="SVGID_33_" gradientUnits="userSpaceOnUse" x1="-854.2526" y1="610.1837" x2="-20.3925" y2="1183.5537" gradientTransform="matrix(0 -1 1 0 -246.24 -159.13)">
								<stop  offset="0" style="stop-color:#FFFFFF"/>
								<stop  offset="0.47" style="stop-color:#000000"/>
								<stop  offset="1" style="stop-color:#FFFFFF"/>
							</linearGradient>
							<path class="st32" d="M547.5,193.9c42.6,58.8,117.8,127.1,77.2,205.7c-12.1,22.8-29.2,42.4-45.5,62.2
								c-23.2,25.6-47.5,47.7-34.8,85.5c6.5,25.2,19.7,49,29.8,72.9c14.2,32.2,24.7,66,35.2,99.6h0.8
								c-10.4-33.8-20.9-67.7-35.2-100.1c-13.4-34.9-41-72.8-30-111.5c7.3-18,22.8-30.8,34.9-45.6c12.7-14.6,24.6-29.9,35.9-45.6
								c28.8-38.5,27.6-90.7,1.5-130.3c-25-45.6-68-79.1-87.4-127.8c-13.2-37.5-2.8-80.2,18.2-112.7c22.3-31.1,51.1-56.7,72.1-88.9
								h-0.8c-20.9,31.8-49.8,57.7-72,88.3C517.8,89.9,513.5,150.8,547.5,193.9z"/>
							
								<linearGradient id="SVGID_34_" gradientUnits="userSpaceOnUse" x1="-853.3536" y1="609.0098" x2="-19.7036" y2="1182.2499" gradientTransform="matrix(0 -1 1 0 -246.24 -159.13)">
								<stop  offset="0" style="stop-color:#FFFFFF"/>
								<stop  offset="0.47" style="stop-color:#000000"/>
								<stop  offset="1" style="stop-color:#FFFFFF"/>
							</linearGradient>
							<path class="st33" d="M525.9,161.1c11.8,33.8,37.4,59.9,58.7,87.9c84.4,103.5,61.4,149.3-12.3,248
								c-24.5,30.4-7.3,70.8,3.7,103.3c13.9,38.9,22.9,79.3,32.7,119.4h0.8c-9.8-40.2-18.8-80.7-32.7-119.7
								c-9.4-29.6-25.6-64.4-8.9-94.2c20.7-30.6,44.3-59.4,60.5-92.9c22.9-45.9,9.2-94.4-20-133.6c-45.3-66.6-113.5-115-77.9-204.9
								c8.5-24.3,26.6-43.7,44.2-61.8c16.6-17.7,33-35.5,47.4-55.2h-0.8c-21.5,29.7-49.1,54.9-72.7,82.8
								C523,73.8,512.1,120.4,525.9,161.1z"/>
							
								<linearGradient id="SVGID_35_" gradientUnits="userSpaceOnUse" x1="-852.7389" y1="608.1274" x2="-19.2489" y2="1181.2474" gradientTransform="matrix(0 -1 1 0 -246.24 -159.13)">
								<stop  offset="0" style="stop-color:#FFFFFF"/>
								<stop  offset="0.47" style="stop-color:#000000"/>
								<stop  offset="1" style="stop-color:#FFFFFF"/>
							</linearGradient>
							<path class="st34" d="M523,163.6c10.5,30.6,32.1,55.5,51.9,80.5c56.9,70.5,91.8,120.2,43.6,208.8
								c-7.8,17-18.7,34.3-28.2,50.4c-7.2,10.9-12,23.5-12.2,36.7c0.3,32.9,12.4,64.2,17.5,96.4c4.9,27.6,8.4,55.5,13.2,83.2h0.8
								c-7.1-40.6-11.2-81.7-21.3-121.7c-5.4-24.9-14-51.7-5.8-76.9c13.5-28.9,33.6-55.1,45.2-85.2c21.5-41.2,19.6-92.1-6.8-130.6
								c-20-32.8-45.6-61.4-68.7-91.9c-15.4-20.5-28.9-43.3-33-68.9c-14.1-91.9,56.9-124.6,105.1-187h-0.9
								C598-8.7,563.3,16.8,538.2,50.9C517,83.6,510.2,126.6,523,163.6L523,163.6z"/>
							
								<linearGradient id="SVGID_36_" gradientUnits="userSpaceOnUse" x1="-852.3601" y1="607.4701" x2="-18.9501" y2="1180.5201" gradientTransform="matrix(0 -1 1 0 -246.24 -159.13)">
								<stop  offset="0" style="stop-color:#FFFFFF"/>
								<stop  offset="0.47" style="stop-color:#000000"/>
								<stop  offset="1" style="stop-color:#FFFFFF"/>
							</linearGradient>
							<path class="st35" d="M524.1,176.3c15.6,35.3,42.7,63.6,65.7,94c70,83.8,68.1,134.8,22.2,231c-19.7,33.2-16.7,58.3-11.2,94.8
								c6.5,40.8,5.2,82.3,9.2,123.4h0.8c-3.9-41.1-2.6-82.7-9.1-123.6c-3-25.3-8.7-53,2.8-76.8c22.2-45.9,47.1-96.2,40.4-148.6
								c-12.7-71.5-76.5-117.3-111.2-177.6c-23.8-38.6-26.4-90.2-4.8-130c5.9-11.2,13.6-21.4,22.8-30.2
								c25.4-24.8,51.9-48.2,74.9-75.5h-0.9c-22.9,27.1-49.3,50.2-74.5,74.8c-9.3,8.8-17.1,19.1-23,30.4
								C509.9,96.7,508.2,140.6,524.1,176.3z"/>
							
								<linearGradient id="SVGID_37_" gradientUnits="userSpaceOnUse" x1="-852.2954" y1="607.1524" x2="-18.9254" y2="1180.1924" gradientTransform="matrix(0 -1 1 0 -246.24 -159.13)">
								<stop  offset="0" style="stop-color:#FFFFFF"/>
								<stop  offset="0.47" style="stop-color:#000000"/>
								<stop  offset="1" style="stop-color:#FFFFFF"/>
							</linearGradient>
							<path class="st36" d="M518.4,172.1c30.2,78.1,113.6,127.2,129.2,211.8c7.8,52.4-11.5,103.6-29.2,151.9
								c-7.7,32.2,0,65.6-2,98.2c-1,28.6-4.4,57-4.2,85.6h0.8c-0.1-28.6,3.3-57,4.3-85.6c1.2-26.3-2.2-52.5-1-78.7
								c0.8-19.8,10-37.5,16.6-55.8c12.1-37,21.7-76.9,16-115.9c-15.3-84.9-99.1-134-129.5-212c-14-36.3-11.5-79.4,8.7-112.8
								c6.5-11,15.2-20.3,24.6-28.7c25.9-24,52.8-46.4,76.4-72.9h-0.9c-23.5,26.2-50.3,48.4-76,72.2c-9.5,8.4-18.2,17.8-24.8,28.8
								C507,92,504.4,135.4,518.4,172.1z"/>
							
								<linearGradient id="SVGID_38_" gradientUnits="userSpaceOnUse" x1="-852.4659" y1="607.0686" x2="-19.0759" y2="1180.1285" gradientTransform="matrix(0 -1 1 0 -246.24 -159.13)">
								<stop  offset="0" style="stop-color:#FFFFFF"/>
								<stop  offset="0.47" style="stop-color:#000000"/>
								<stop  offset="1" style="stop-color:#FFFFFF"/>
							</linearGradient>
							<path class="st37" d="M513.5,169c27.3,77.1,101.5,126,131.7,201.5c14.8,40.4,11.7,85,3.9,126.5
								c-3.7,19.4-11.7,37.7-14.6,57.3c-3.2,25.8-1.8,53.3-5.5,79c-3.8,28.8-10.9,57.3-13.8,86.2h0.8c2.9-28.9,10-57.3,13.9-86.1
								c3.8-25.7,2.4-53.2,5.6-79c2.9-19.6,10.9-37.8,14.6-57.2c4.1-19.4,5.8-39.2,6.5-59c8.2-112.5-107.6-173.1-142.2-269.7
								C480.2,52.3,567.1,27.7,631.8-42.7h-0.9C599-6.8,556.3,17.7,526.4,55.2C503.9,88,500.7,131.8,513.5,169z"/>
							
								<linearGradient id="SVGID_39_" gradientUnits="userSpaceOnUse" x1="-853.0827" y1="607.424" x2="-19.5427" y2="1180.574" gradientTransform="matrix(0 -1 1 0 -246.24 -159.13)">
								<stop  offset="0" style="stop-color:#FFFFFF"/>
								<stop  offset="0.47" style="stop-color:#000000"/>
								<stop  offset="1" style="stop-color:#FFFFFF"/>
							</linearGradient>
							<path class="st38" d="M509.1,167.1c26.9,82.1,104.2,133.5,138.9,211.2c21.5,52.2,21.4,111.9,8.2,166.3
								c-6.2,29.3-6.2,59.7-13.1,88.8c-6.5,29-17,57-23.4,86.1h0.8c6.4-29.1,16.9-56.8,23.4-86c7-29.2,7-59.5,13.2-88.8
								c12-48.4,12.9-100.4-1.3-148.4C622.1,285.4,466.5,209.7,511.6,79.1c7.9-21.5,24-38.2,41.8-52c27.5-22.9,56.2-44.1,81.4-69.8
								h-1c-25.1,25.3-53.6,46.4-81,69c-12.4,10.1-24.8,20.7-33.2,34.6C500.2,92.3,498,132.4,509.1,167.1z"/>
							
								<linearGradient id="SVGID_40_" gradientUnits="userSpaceOnUse" x1="-854.1353" y1="608.2677" x2="-20.3753" y2="1181.5677" gradientTransform="matrix(0 -1 1 0 -246.24 -159.13)">
								<stop  offset="0" style="stop-color:#FFFFFF"/>
								<stop  offset="0.47" style="stop-color:#000000"/>
								<stop  offset="1" style="stop-color:#FFFFFF"/>
							</linearGradient>
							<path class="st39" d="M500.6,146.9c16.3,87,91.8,143.7,137.1,215.2c29,45.1,41.7,99.8,40.3,153.1c-1,26.5-6.4,53.9-10.3,80.2
								c-6.7,43.7-27.4,83-41.9,124.3h0.7c17.7-47.1,40.2-93.1,45.3-144c8.8-46.5,10.9-94.8-1.5-140.8
								c-14.8-66.1-62.9-115.7-104-166.8c-49-56.9-97.2-147.4-42.1-215.6c34.5-35.6,78.7-59.7,113.8-95.1h-1
								C606-12.9,570.3,10.7,537.4,38C505.4,63.3,493.8,107.5,500.6,146.9z"/>
							
								<linearGradient id="SVGID_41_" gradientUnits="userSpaceOnUse" x1="-855.5966" y1="609.4851" x2="-21.4966" y2="1183.0151" gradientTransform="matrix(0 -1 1 0 -246.24 -159.13)">
								<stop  offset="0" style="stop-color:#FFFFFF"/>
								<stop  offset="0.47" style="stop-color:#000000"/>
								<stop  offset="1" style="stop-color:#FFFFFF"/>
							</linearGradient>
							<path class="st40" d="M495.6,136.9c11.1,93.2,90.6,155.4,141,228.4c47.6,65.8,69,152.3,49.6,232.2
								c-9.6,44-33.9,82.1-53.2,122.1h0.8c19.2-39.8,43.6-77.9,53.2-121.8c19.6-80.2-1.8-167-49.5-233.2
								c-55.8-82-167.8-167.3-135.5-278.2c8-26.5,28.3-44.4,49.9-59.8c30.1-22.7,61.4-43.3,89.1-69.2h-1
								c-36.7,35.1-82.2,58.8-118.7,93.9C500.7,73.8,492.7,106.7,495.6,136.9z"/>
							
								<linearGradient id="SVGID_42_" gradientUnits="userSpaceOnUse" x1="-866.7769" y1="624.0701" x2="-32.8969" y2="1197.4601" gradientTransform="matrix(0 -1 1 0 -246.24 -159.13)">
								<stop  offset="0" style="stop-color:#FFFFFF"/>
								<stop  offset="0.47" style="stop-color:#000000"/>
								<stop  offset="1" style="stop-color:#FFFFFF"/>
							</linearGradient>
							<path class="st41" d="M530,209.2c27.2,68,82.1,118,119.6,179.7c40.5,64.8,55.4,145.9,38.4,220.8
								c-8.4,38.1-25.4,73.6-39.1,110h0.8c12.6-33.1,27.9-65.6,36.8-100.1c11.8-45.7,12.5-93.6,1.9-139.6
								c-24.1-134-178.8-211.3-169.4-349.6c2.2-26.2,10.7-52.8,27.2-73.2c33.8-37.7,79.2-62.2,113.4-99.9h-0.9
								C633-15.3,602.3,5.8,573.7,29.8c-20.6,16.2-38.7,35.6-47.2,61.2C512.8,128.9,515.2,172,530,209.2z"/>
							
								<linearGradient id="SVGID_43_" gradientUnits="userSpaceOnUse" x1="-877.4734" y1="638.085" x2="-43.8134" y2="1211.325" gradientTransform="matrix(0 -1 1 0 -246.24 -159.13)">
								<stop  offset="0" style="stop-color:#FFFFFF"/>
								<stop  offset="0.47" style="stop-color:#000000"/>
								<stop  offset="1" style="stop-color:#FFFFFF"/>
							</linearGradient>
							<path class="st42" d="M544.8,212.5c18.2,68,68.7,119.8,104.5,178.7c38.8,62.2,54.8,138.3,44.4,211.1
								c-5.3,38.6-20,79.5-29.9,117.2h0.8c10.2-37.7,24.6-78.4,30-117c9.2-64.9-2-133-32.4-190.9c-23.8-45.8-57.9-84.9-84.6-128.8
								c-43.6-64.6-52.7-154.4-7.1-220.4C601.3,22.6,646-2.8,677.2-42.6h-0.9C645.1-3.1,600.6,22.2,569.7,61.8
								C539.9,104.7,532.5,162.2,544.8,212.5z"/>
							
								<linearGradient id="SVGID_44_" gradientUnits="userSpaceOnUse" x1="-887.895" y1="651.7972" x2="-54.4349" y2="1224.8972" gradientTransform="matrix(0 -1 1 0 -246.24 -159.13)">
								<stop  offset="0" style="stop-color:#FFFFFF"/>
								<stop  offset="0.47" style="stop-color:#000000"/>
								<stop  offset="1" style="stop-color:#FFFFFF"/>
							</linearGradient>
							<path class="st43" d="M560.4,200.7c2,56.8,34.2,106.3,63.9,152.7c62.3,87,88.9,184,67.3,290.1c-4.7,22.2-10.3,53.5-13.8,76.1
								h0.8c3.5-23,9.3-53.6,13.9-75.9c15.7-78.5,6.3-163.8-32.6-234.4c-37.4-70-99.8-134.2-98.4-218.3
								c3.5-134.2,63-144.1,132.1-233.7h-0.8c-34.5,51.6-95,82.6-115.8,143.8C564.9,132.9,559.3,166.7,560.4,200.7z"/>
							
								<linearGradient id="SVGID_45_" gradientUnits="userSpaceOnUse" x1="-897.787" y1="664.8812" x2="-64.537" y2="1237.8312" gradientTransform="matrix(0 -1 1 0 -246.24 -159.13)">
								<stop  offset="0" style="stop-color:#FFFFFF"/>
								<stop  offset="0.47" style="stop-color:#000000"/>
								<stop  offset="1" style="stop-color:#FFFFFF"/>
							</linearGradient>
							<path class="st44" d="M581,232c5.7,68.2,50,125.1,80.4,184c24.8,47.3,37.6,101.1,39.2,154.5c2.5,50-9.2,99.2-10.2,149h0.8
								c1.2-49.8,12.8-99.1,10.5-149.1c-1.5-53.6-14.3-107.7-39.1-155.1c-65.8-119-109-167.2-59.6-308.8
								c19.1-60.7,76-95.4,106-149.2h-0.7c-17.4,32.6-45.5,56.6-68.7,84.6C596.2,93.9,579.3,165.3,581,232z"/>
							
								<linearGradient id="SVGID_46_" gradientUnits="userSpaceOnUse" x1="-907.005" y1="677.1073" x2="-73.9651" y2="1249.9174" gradientTransform="matrix(0 -1 1 0 -246.24 -159.13)">
								<stop  offset="0" style="stop-color:#FFFFFF"/>
								<stop  offset="0.47" style="stop-color:#000000"/>
								<stop  offset="1" style="stop-color:#FFFFFF"/>
							</linearGradient>
							<path class="st45" d="M601.1,262.7c7.3,61,42,113,67.3,167.5c32,67.9,38.8,145.3,33.5,219.6c-2.6,23.2-1.6,46.5,0.1,69.8h0.8
								c-1.6-23.2-2.6-46.5,0-69.7c5.4-74.5-1.4-152.1-33.3-220.3c-24.5-53.1-58-103.6-66.6-162.5c-6.5-63.4,15.2-141.6,44.3-197.7
								c21.8-39.9,58.6-69.5,76-112.1h-0.7C705-0.3,668.2,29.3,646.4,69C617,125.2,596.7,199,601.1,262.7z"/>
							
								<linearGradient id="SVGID_47_" gradientUnits="userSpaceOnUse" x1="-913.1949" y1="685.0779" x2="-80.3948" y2="1257.7179" gradientTransform="matrix(0 -1 1 0 -246.24 -159.13)">
								<stop  offset="0" style="stop-color:#FFFFFF"/>
								<stop  offset="0.47" style="stop-color:#000000"/>
								<stop  offset="1" style="stop-color:#FFFFFF"/>
							</linearGradient>
							<path class="st46" d="M632.5,342.4c17.8,53.3,47.9,101.6,60.3,156.8c8.8,36.6,12.5,74.3,13.6,112c1.2,36.2-2.1,72.8,6,108.3
								h0.8c-8.1-35.8-4.8-72.1-5.9-108.4c-1.1-37.8-4.8-75.6-13.5-112.3c-12.4-55.2-42.3-103.7-60.2-157
								c-37.2-91.9,13.1-184.2,39-272c25.5-34.7,50.5-71.1,63.9-112.6H736c-13.5,41.3-38.5,77.6-64,112.2
								C645.9,157.5,595.3,250.1,632.5,342.4z"/>
							
								<linearGradient id="SVGID_48_" gradientUnits="userSpaceOnUse" x1="-919.5551" y1="693.092" x2="-86.8452" y2="1265.682" gradientTransform="matrix(0 -1 1 0 -246.24 -159.13)">
								<stop  offset="0" style="stop-color:#FFFFFF"/>
								<stop  offset="0.47" style="stop-color:#000000"/>
								<stop  offset="1" style="stop-color:#FFFFFF"/>
							</linearGradient>
							<path class="st47" d="M637.1,302.2c4.2,76.2,46.5,143.1,63.1,216.6c7.7,31.2,12.9,63.2,14.3,95.4c0.9,19.4,0.2,38.8-2.1,58
								c3.6,16,8.2,31.6,11.9,47.5h0.8c-3.7-15.9-8.2-31.7-11.8-47.6c2.7-22.5,3.2-45.1,1.7-67.7c-2.4-35.3-9-70.5-18.6-104.5
								c-18.9-69.2-57.7-134.1-58.4-207.3c0.1-12.9,1.4-25.7,4-38.3c10.5-48.6,30-94.6,44.2-142.1c3.7-12.3,7.1-24.6,9.7-37.2
								c23.2-36.1,43.5-75.4,53.5-117.5h-0.7c-10,42-30.4,81.2-53.6,117.1c-13.5,62.8-42.6,121.1-55.2,184.2
								C637.3,273,636.4,287.6,637.1,302.2z"/>
							
								<linearGradient id="SVGID_49_" gradientUnits="userSpaceOnUse" x1="-924.8804" y1="699.9651" x2="-92.4104" y2="1272.385" gradientTransform="matrix(0 -1 1 0 -246.24 -159.13)">
								<stop  offset="0" style="stop-color:#FFFFFF"/>
								<stop  offset="0.47" style="stop-color:#000000"/>
								<stop  offset="1" style="stop-color:#FFFFFF"/>
							</linearGradient>
							<path class="st48" d="M660.5,376.6c17.7,74.8,48.5,145.9,55.4,223c3,25.5,3.8,51.3,2.3,77c4.5,14.6,10.1,28.7,15,43.1h0.8
								c-4.9-14.4-10.5-28.7-15-43.2c0.8-12.8,1-25.6,0.6-38.5c-1-25.7-3.7-51.3-8.3-76.6c-12.6-88.4-62.4-170.5-55-261.4
								c7.7-63.5,39.8-120.9,55.1-182.6c3.3-12.4,5.8-24.9,7.6-37.6c5.6-10.1,10.7-20.4,15.3-31.1c12.2-29.3,22.2-60,27.2-91.4h-0.7
								c-7.4,42.7-21.8,83.9-42.6,122c-3.4,25.4-10.6,50-18.7,74.2C673.2,233.3,640,289.6,660.5,376.6z"/>
							
								<linearGradient id="SVGID_50_" gradientUnits="userSpaceOnUse" x1="-929.7623" y1="706.3333" x2="-97.5623" y2="1278.5632" gradientTransform="matrix(0 -1 1 0 -246.24 -159.13)">
								<stop  offset="0" style="stop-color:#FFFFFF"/>
								<stop  offset="0.47" style="stop-color:#000000"/>
								<stop  offset="1" style="stop-color:#FFFFFF"/>
							</linearGradient>
							<path class="st49" d="M677.7,417.4c13.7,62.3,33.1,123.3,40.7,187c3.5,25.4,5.4,51,5.5,76.7c5.3,13.1,11.5,25.8,17.2,38.6
								h0.9c-5.8-12.9-12-25.7-17.2-38.9c-0.1-25.6-1.9-51.2-5.4-76.6c-3.4-25.4-8-50.6-13.5-75.5c-10.6-49.9-27.6-98.5-32.8-149.4
								c-3-28.5-1.9-57.7,5.2-85.5c12.9-45.9,33.6-88.9,48-134.3c7.9-24.2,14.2-49.2,15.8-74.7c17.8-39.9,26.2-84,30.9-127.3h-0.7
								c-4.6,43.2-13.4,87.2-31.1,127.1c-1.6,25.4-7.9,50.4-15.8,74.5C692.8,258.1,653.4,306.9,677.7,417.4z"/>
							
								<linearGradient id="SVGID_51_" gradientUnits="userSpaceOnUse" x1="-934.2195" y1="712.2094" x2="-102.3395" y2="1284.2194" gradientTransform="matrix(0 -1 1 0 -246.24 -159.13)">
								<stop  offset="0" style="stop-color:#FFFFFF"/>
								<stop  offset="0.47" style="stop-color:#000000"/>
								<stop  offset="1" style="stop-color:#FFFFFF"/>
							</linearGradient>
							<path class="st50" d="M700,496c7.9,37.5,15.2,75.1,21,113c3.8,25.3,7,50.8,8.8,76.4c5.7,11.7,12.1,22.9,18.4,34.2h0.9
								c-6.3-11.4-12.8-22.7-18.5-34.5c-1.8-25.5-4.8-51-8.7-76.2c-7.3-50.6-18.8-100.5-28.2-150.7c-26-135.6,19.8-174.7,58.7-293.3
								c7.4-24.4,12.8-49.7,12.8-75.3c12.7-33.5,13.1-70,17.5-105.1c1-9,1.4-18.1,1.3-27.1h-0.7c0.4,21-3.4,41.6-5.1,62.5
								c-2.3,23.5-5.5,47.4-13.9,69.5c-0.3,51.3-20.6,99.6-39.7,146.2c-11.3,27.9-24.5,55.2-32,84.4C677.5,378,687.6,438.5,700,496z
								"/>
							
								<linearGradient id="SVGID_52_" gradientUnits="userSpaceOnUse" x1="-938.3317" y1="717.717" x2="-106.8017" y2="1289.4869" gradientTransform="matrix(0 -1 1 0 -246.24 -159.13)">
								<stop  offset="0" style="stop-color:#FFFFFF"/>
								<stop  offset="0.47" style="stop-color:#000000"/>
								<stop  offset="1" style="stop-color:#FFFFFF"/>
							</linearGradient>
							<path class="st51" d="M698.7,442.5c1.7,32.1,7,63.8,12.1,95.4c8.3,50.6,17.3,101.1,24.7,151.9c5.7,10.2,12.2,20,18.5,29.8h1
								c-6.4-9.9-12.8-19.8-18.7-30.1c-10-69.8-23.5-138.9-33-208.8c-5.5-44.3-6.3-90,5.1-133.5c9.3-36.8,28.3-70.7,43-105.5
								c20-46.3,39.9-95.8,36.9-147.3c10.1-36.6,4-75.1,6.9-112.5c0.3-7.4-0.2-17.2-0.6-24.5h-0.7c0.4,7.4,0.9,17.1,0.6,24.4
								c-2.3,31.5,1.1,63.5-3.2,94.9c-0.9,5.9-2.2,11.8-3.8,17.6c0.4,6.4,0.4,12.9,0.2,19.3c-1,19.1-4.8,38.1-10.2,56.4
								c-16.3,58.3-49.1,110.1-67.6,167.5C699.5,371.4,696.8,407.3,698.7,442.5z"/>
							
								<linearGradient id="SVGID_53_" gradientUnits="userSpaceOnUse" x1="-941.9885" y1="722.6533" x2="-110.8285" y2="1294.1732" gradientTransform="matrix(0 -1 1 0 -246.24 -159.13)">
								<stop  offset="0" style="stop-color:#FFFFFF"/>
								<stop  offset="0.47" style="stop-color:#000000"/>
								<stop  offset="1" style="stop-color:#FFFFFF"/>
							</linearGradient>
							<path class="st52" d="M712.7,525.8c6.2,56.6,15.7,112.9,28.6,168.4c5.7,8.7,11.7,17,17.9,25.4h1
								c-6.2-8.4-12.4-16.9-18.1-25.8c-8.5-36.9-15.5-74.1-21.1-111.7c-12-78.9-19.6-162.5,10.8-238.3
								C768.3,263,811,180.6,811.6,89.5c0-28.5-3.8-57-4.4-85.4c0-15.6-0.6-31.4-2.7-46.8h-0.7c1.9,15.5,2.8,31.2,2.6,46.8
								c0.5,28.5,4.3,56.9,4.3,85.4c-0.7,90.9-43.6,173-80,253.8C707.6,400.9,705.8,464.7,712.7,525.8z"/>
							
								<linearGradient id="SVGID_54_" gradientUnits="userSpaceOnUse" x1="-944.4206" y1="726.3754" x2="-113.9006" y2="1297.4454" gradientTransform="matrix(0 -1 1 0 -246.24 -159.13)">
								<stop  offset="0" style="stop-color:#FFFFFF"/>
								<stop  offset="0.47" style="stop-color:#000000"/>
								<stop  offset="1" style="stop-color:#FFFFFF"/>
							</linearGradient>
							<path class="st53" d="M723.4,608.3c4.7,39,12.9,79.4,36.8,111.4h1c-38.6-53.5-38.4-123.4-41.8-186.7
								c-0.8-25-0.3-50.4,2.8-75.2c4.6-37.3,15.2-73.5,31.4-107.4c16.6-33.1,35-65.7,49-100.1c21.3-51.5,37-108.5,30.3-164.8
								c-3.2-24.9-9.8-49.3-12.6-74.3c-1.5-17.9-2.9-36.2-6.3-53.8h-0.7c4.8,23.8,4.5,48.6,8.9,72.6c5.1,29.2,12.6,58.6,11.4,88.5
								c-2.6,70.5-31.7,136.8-63.9,198.3C713.7,410.8,712.2,502.5,723.4,608.3z"/>
							
								<linearGradient id="SVGID_55_" gradientUnits="userSpaceOnUse" x1="-947.6725" y1="730.8337" x2="-117.5225" y2="1301.6537" gradientTransform="matrix(0 -1 1 0 -246.24 -159.13)">
								<stop  offset="0" style="stop-color:#FFFFFF"/>
								<stop  offset="0.47" style="stop-color:#000000"/>
								<stop  offset="1" style="stop-color:#FFFFFF"/>
							</linearGradient>
							<path class="st54" d="M732.4,648.8c5.4,25.6,15.6,50.6,32,70.8h1.1c-57.1-70.3-46.2-225-15.5-306.1
								c13.7-38.6,36.5-72.7,55.7-108.6c16.2-30.5,30.8-62.4,40.5-95.7c10-33.5,14.8-69.2,10.7-104.1c-3.3-25.3-13.3-49-19.8-73.6
								c-6.6-24.3-7.7-49.8-13.9-74.2h-0.7c6.2,24.5,7.3,50,13.9,74.4c7.1,27.5,19.3,54.2,20.6,82.9c0.6,7,0.6,16.9,0.5,23.9
								c-3.3,84.9-48.9,159.2-89.5,231.2C723.7,454.6,715,555.5,732.4,648.8z"/>
							
								<linearGradient id="SVGID_56_" gradientUnits="userSpaceOnUse" x1="-950.6842" y1="735.0106" x2="-120.9142" y2="1305.5707" gradientTransform="matrix(0 -1 1 0 -246.24 -159.13)">
								<stop  offset="0" style="stop-color:#FFFFFF"/>
								<stop  offset="0.47" style="stop-color:#000000"/>
								<stop  offset="1" style="stop-color:#FFFFFF"/>
							</linearGradient>
							<path class="st55" d="M735.4,651.8c5.3,25,15.9,48.6,32.8,67.8h1.1c-66.6-76.6-37.1-229.1,5.7-312.3
								c6.3-12.4,13.7-25.6,20.9-37.5c37-57.6,73.3-118.1,84.5-186.8c6.6-38.7,2.7-78.5-14.8-113.9c-7.5-17.7-16-35.2-20.6-54
								c-3.6-19.4-7.9-38.8-13.1-57.8h-0.7c7.6,25.2,9.9,51.8,18.7,76.6c10.8,30.1,28.5,58.4,31.2,90.9
								c8.9,89.8-39.8,171.6-86.5,244.3c-10.9,17.7-20.7,36.1-29.2,55C734.8,494,720.2,576.3,735.4,651.8z"/>
							
								<linearGradient id="SVGID_57_" gradientUnits="userSpaceOnUse" x1="-953.4269" y1="738.8355" x2="-124.0369" y2="1309.1355" gradientTransform="matrix(0 -1 1 0 -246.24 -159.13)">
								<stop  offset="0" style="stop-color:#FFFFFF"/>
								<stop  offset="0.47" style="stop-color:#000000"/>
								<stop  offset="1" style="stop-color:#FFFFFF"/>
							</linearGradient>
							<path class="st56" d="M738.2,654.6c5,24.3,15.9,47,33,65h1.2c-50.9-53.9-41.1-136.2-22-201.8c12.7-43.7,33-85.4,57.6-123.5
								c50.2-74.1,107.2-155.9,99.8-249.9c-1.4-40.6-27.2-73.1-43.8-108.4c-2.8-5.9-5.1-12-6.9-18.3c-5-20.3-10.6-40.5-16.7-60.4
								h-0.7c6.8,21.6,12.1,43.6,18.1,65.4c10.3,29.4,29.5,54.4,41,83.3c25.8,76.6-9.1,157.8-49.1,222.9
								c-27.7,43.9-59.6,84.9-80,133.1C744.3,522,725.1,589.4,738.2,654.6z"/>
							
								<linearGradient id="SVGID_58_" gradientUnits="userSpaceOnUse" x1="-955.9165" y1="742.4141" x2="-126.9365" y2="1312.4241" gradientTransform="matrix(0 -1 1 0 -246.24 -159.13)">
								<stop  offset="0" style="stop-color:#FFFFFF"/>
								<stop  offset="0.47" style="stop-color:#000000"/>
								<stop  offset="1" style="stop-color:#FFFFFF"/>
							</linearGradient>
							<path class="st57" d="M754.6,695.1c5.2,9,11.6,17.3,19,24.5h1.2c-48.1-45.8-39.4-119.4-18.4-176.3
								c13.5-39.6,32-76.8,54.4-111.8c43.8-65.9,98-127.6,116.9-206.5c8.1-32.7,8.9-67.8-0.5-100.4c-10.5-31.9-34.5-56.6-50.1-85.7
								c-13-25.7-18.4-54.7-28.6-81.6h-0.7c10.2,27,15.8,56.1,28.7,82c30.9,51.2,61.6,80.3,56.3,145.6c-5.4,81-54.1,149.9-100.9,213
								c-31.2,43.1-57.4,89.6-74.9,140.2C738.9,587.9,727.2,646.5,754.6,695.1z"/>
							
								<linearGradient id="SVGID_59_" gradientUnits="userSpaceOnUse" x1="-958.0165" y1="745.544" x2="-129.4865" y2="1315.2439" gradientTransform="matrix(0 -1 1 0 -246.24 -159.13)">
								<stop  offset="0" style="stop-color:#FFFFFF"/>
								<stop  offset="0.47" style="stop-color:#000000"/>
								<stop  offset="1" style="stop-color:#FFFFFF"/>
							</linearGradient>
							<path class="st58" d="M743.8,659.7c3.3,22.9,14.3,44.1,31.2,59.9h1.3c-27.9-24.9-37.6-65.1-30.9-101.2
								c4.3-23.4,14-46,23.1-67.9c22.6-52.9,54.5-101.6,90-146.5c57.2-72.3,119.5-162.8,96.3-259.7c-9-40.8-43.6-68.1-64.8-102.2
								c-3.7-5.7-6.8-11.8-9.2-18.1c-6.1-18.2-18.2-48.6-24.5-66.7h-0.7c8.5,22.4,19.3,54.7,28.7,76.4
								c18.2,34.5,50.5,59.7,65.1,96.1c34.2,100.1-31.8,198.1-92,273.2c-37.6,47.7-71.1,99.8-93.9,156.3
								C750.5,591,738,625,743.8,659.7z"/>
							
								<linearGradient id="SVGID_60_" gradientUnits="userSpaceOnUse" x1="-964.0662" y1="752.4236" x2="-134.8862" y2="1322.5936" gradientTransform="matrix(0 -1 1 0 -246.24 -159.13)">
								<stop  offset="0" style="stop-color:#FFFFFF"/>
								<stop  offset="0.47" style="stop-color:#000000"/>
								<stop  offset="1" style="stop-color:#FFFFFF"/>
							</linearGradient>
							<path class="st59" d="M772,694.9c4.9,9.1,11.2,17.5,18.6,24.7h1.2c-52.2-51.7-31-120.7-6.4-180.1
								c15.1-36.9,33.8-72.3,55.8-105.6c21.7-33.2,46.5-64.2,66.1-98.9c48.2-82.4,76.2-183.3,6.2-262.2
								c-9.9-13.7-20.1-27.5-26.8-43.1c-8-24.1-15.8-48.3-24-72.4H862c8.3,24.1,15.9,48.5,24,72.7c6.6,15.8,17,29.6,26.8,43.3
								c69.7,78.8,41.5,178.9-6.5,261c-19.6,34.6-44.5,65.5-66.1,98.8c-21.8,33.5-40.8,68.8-55.8,105.9
								C764.7,587.7,744.4,645.3,772,694.9z"/>
							
								<linearGradient id="SVGID_61_" gradientUnits="userSpaceOnUse" x1="-969.9889" y1="759.1229" x2="-140.149" y2="1329.7329" gradientTransform="matrix(0 -1 1 0 -246.24 -159.13)">
								<stop  offset="0" style="stop-color:#FFFFFF"/>
								<stop  offset="0.47" style="stop-color:#000000"/>
								<stop  offset="1" style="stop-color:#FFFFFF"/>
							</linearGradient>
							<path class="st60" d="M786.5,691.6c5,10.3,11.5,19.7,19.4,28h1.2c-49.7-52.4-30.9-121.4-8.8-181.7
								c17.5-49.2,41.7-95.8,70.2-139.5c50.4-77.8,99.7-172,77.3-267.5c-9.8-35-37.2-61.1-52.3-93.6c-2.8-6-4.9-12.2-6.4-18.6
								c-5.5-20.7-11.8-41.1-18-61.5h-0.7c8.1,25.1,14.3,50.9,22.6,76c13.2,31.7,38.4,56.7,51,88.7c33.5,111.9-38.2,218.1-94.9,309
								c-26.5,45.3-47.3,93.7-61.9,144.1C772.8,612.5,769,655.2,786.5,691.6z"/>
							
								<linearGradient id="SVGID_62_" gradientUnits="userSpaceOnUse" x1="-975.8812" y1="765.7717" x2="-145.3912" y2="1336.8317" gradientTransform="matrix(0 -1 1 0 -246.24 -159.13)">
								<stop  offset="0" style="stop-color:#FFFFFF"/>
								<stop  offset="0.47" style="stop-color:#000000"/>
								<stop  offset="1" style="stop-color:#FFFFFF"/>
							</linearGradient>
							<path class="st61" d="M801.3,688.4c4.9,11.4,11.5,21.9,19.7,31.2h1.1c-35.6-39.3-36.3-97.3-21.5-145.8
								c9.3-37.6,21.9-74.3,37.5-109.7c47.4-101,114.4-186.4,108.8-305.6c0.8-47.2-34-82.2-51.1-123.4
								c-7.7-25.6-12.6-52.1-20.4-77.8h-0.7c7.8,25.8,12.6,52.4,20.3,78.1c12.6,32.9,38.3,59.7,46.9,94.3
								c13.7,67-6.8,136.6-34.5,197.4c-33.7,69.4-76.8,133.7-97.5,208.9C795.1,584.9,779.6,639.1,801.3,688.4z"/>
						</g>
					</g>
				</g>
				<g>
					<defs>
						<rect id="SVGID_63_" x="160.8" y="-7.5" width="900.9" height="707.2"/>
					</defs>
					<clipPath id="SVGID_64_">
						<use xlink:href="#SVGID_63_"  style="overflow:visible;"/>
					</clipPath>
					<g class="st62">
						<g class="st63">
							
								<linearGradient id="SVGID_65_" gradientUnits="userSpaceOnUse" x1="5903.4473" y1="-1384.113" x2="5974.6875" y2="-1384.113" gradientTransform="matrix(0.96 -0.27 0.27 0.96 -4759.4302 2999.2397)">
								<stop  offset="0" style="stop-color:#B37E10"/>
								<stop  offset="7.000000e-02" style="stop-color:#B58215"/>
								<stop  offset="0.15" style="stop-color:#BC8C24"/>
								<stop  offset="0.24" style="stop-color:#C89E3D"/>
								<stop  offset="0.33" style="stop-color:#D8B660"/>
								<stop  offset="0.43" style="stop-color:#EDD58C"/>
								<stop  offset="0.47" style="stop-color:#F8E6A4"/>
								<stop  offset="0.63" style="stop-color:#F8DD7B"/>
								<stop  offset="0.67" style="stop-color:#EDCE6A"/>
								<stop  offset="0.74" style="stop-color:#D4AB43"/>
								<stop  offset="0.82" style="stop-color:#C29327"/>
								<stop  offset="0.88" style="stop-color:#B78316"/>
								<stop  offset="0.93" style="stop-color:#B37E10"/>
							</linearGradient>
							<path class="st64" d="M570.3,62.9c-5.5-0.7-11.1-1.6-16.9-2.7c-2.6,2.1-8.1-1-11.4-0.2c8.5,3.9,17.7,6.2,27.1,6.6
								c-6.4-0.3-12.8-1-19.1-2.1c16.1,2.9,32.6,3.5,48.9,1.5c6.2,0.2,13,5.3,19,0.5C602.5,66.1,586.1,65,570.3,62.9z"/>
							
								<linearGradient id="SVGID_66_" gradientUnits="userSpaceOnUse" x1="5883.5474" y1="-1417.72" x2="5888.8877" y2="-1417.72" gradientTransform="matrix(0.96 -0.27 0.27 0.96 -4759.4302 2999.2397)">
								<stop  offset="0" style="stop-color:#B37E10"/>
								<stop  offset="7.000000e-02" style="stop-color:#B58215"/>
								<stop  offset="0.15" style="stop-color:#BC8C24"/>
								<stop  offset="0.24" style="stop-color:#C89E3D"/>
								<stop  offset="0.33" style="stop-color:#D8B660"/>
								<stop  offset="0.43" style="stop-color:#EDD58C"/>
								<stop  offset="0.47" style="stop-color:#F8E6A4"/>
								<stop  offset="0.63" style="stop-color:#F8DD7B"/>
								<stop  offset="0.67" style="stop-color:#EDCE6A"/>
								<stop  offset="0.74" style="stop-color:#D4AB43"/>
								<stop  offset="0.82" style="stop-color:#C29327"/>
								<stop  offset="0.88" style="stop-color:#B78316"/>
								<stop  offset="0.93" style="stop-color:#B37E10"/>
							</linearGradient>
							<path class="st65" d="M519.8,45.9l-3.5-2.6c2,2,4.4,3.7,7,5C522.2,47.6,520.8,46.7,519.8,45.9z"/>
							
								<linearGradient id="SVGID_67_" gradientUnits="userSpaceOnUse" x1="5985.9175" y1="-1377.4968" x2="6017.3574" y2="-1377.4968" gradientTransform="matrix(0.96 -0.27 0.27 0.96 -4759.4302 2999.2397)">
								<stop  offset="0" style="stop-color:#B37E10"/>
								<stop  offset="7.000000e-02" style="stop-color:#B58215"/>
								<stop  offset="0.15" style="stop-color:#BC8C24"/>
								<stop  offset="0.24" style="stop-color:#C89E3D"/>
								<stop  offset="0.33" style="stop-color:#D8B660"/>
								<stop  offset="0.43" style="stop-color:#EDD58C"/>
								<stop  offset="0.47" style="stop-color:#F8E6A4"/>
								<stop  offset="0.63" style="stop-color:#F8DD7B"/>
								<stop  offset="0.67" style="stop-color:#EDCE6A"/>
								<stop  offset="0.74" style="stop-color:#D4AB43"/>
								<stop  offset="0.82" style="stop-color:#C29327"/>
								<stop  offset="0.88" style="stop-color:#B78316"/>
								<stop  offset="0.93" style="stop-color:#B37E10"/>
							</linearGradient>
							<path class="st66" d="M642.3,53.7c5.4-0.5,10.9-1.1,16.1-1.2c-10.9,0.6-22-1.3-32.4,1.1C631.4,54.3,636.9,54.3,642.3,53.7z"
								/>
							
								<linearGradient id="SVGID_68_" gradientUnits="userSpaceOnUse" x1="5950.1675" y1="-1392.814" x2="5976.9873" y2="-1392.814" gradientTransform="matrix(0.96 -0.27 0.27 0.96 -4759.4302 2999.2397)">
								<stop  offset="0" style="stop-color:#B37E10"/>
								<stop  offset="7.000000e-02" style="stop-color:#B58215"/>
								<stop  offset="0.15" style="stop-color:#BC8C24"/>
								<stop  offset="0.24" style="stop-color:#C89E3D"/>
								<stop  offset="0.33" style="stop-color:#D8B660"/>
								<stop  offset="0.43" style="stop-color:#EDD58C"/>
								<stop  offset="0.47" style="stop-color:#F8E6A4"/>
								<stop  offset="0.63" style="stop-color:#F8DD7B"/>
								<stop  offset="0.67" style="stop-color:#EDCE6A"/>
								<stop  offset="0.74" style="stop-color:#D4AB43"/>
								<stop  offset="0.82" style="stop-color:#C29327"/>
								<stop  offset="0.88" style="stop-color:#B78316"/>
								<stop  offset="0.93" style="stop-color:#B37E10"/>
							</linearGradient>
							<path class="st67" d="M615.7,50c-9.8,0-19.5-0.6-28.6-2.7C596.4,49.8,606,50.7,615.7,50z"/>
							
								<linearGradient id="SVGID_69_" gradientUnits="userSpaceOnUse" x1="6095.6074" y1="-1371.7648" x2="6122.2573" y2="-1371.7648" gradientTransform="matrix(0.96 -0.27 0.27 0.96 -4759.4302 2999.2397)">
								<stop  offset="0" style="stop-color:#B37E10"/>
								<stop  offset="7.000000e-02" style="stop-color:#B58215"/>
								<stop  offset="0.15" style="stop-color:#BC8C24"/>
								<stop  offset="0.24" style="stop-color:#C89E3D"/>
								<stop  offset="0.33" style="stop-color:#D8B660"/>
								<stop  offset="0.43" style="stop-color:#EDD58C"/>
								<stop  offset="0.47" style="stop-color:#F8E6A4"/>
								<stop  offset="0.63" style="stop-color:#F8DD7B"/>
								<stop  offset="0.67" style="stop-color:#EDCE6A"/>
								<stop  offset="0.74" style="stop-color:#D4AB43"/>
								<stop  offset="0.82" style="stop-color:#C29327"/>
								<stop  offset="0.88" style="stop-color:#B78316"/>
								<stop  offset="0.93" style="stop-color:#B37E10"/>
							</linearGradient>
							<path class="st68" d="M738.1,27c4,1.3,8,2.7,11.8,4.4c4.1-1.3,8.2,1.4,12.1,2.1c-9.8-3.3-19.8-5.9-30-7.9
								c0.9,0.5,1.7,1,2.6,1.6C735.9,26.8,737.4,27.1,738.1,27z"/>
							
								<linearGradient id="SVGID_70_" gradientUnits="userSpaceOnUse" x1="5975.0474" y1="-1266.3081" x2="6207.1875" y2="-1266.3081" gradientTransform="matrix(0.96 -0.27 0.27 0.96 -4759.4302 2999.2397)">
								<stop  offset="0" style="stop-color:#B37E10"/>
								<stop  offset="7.000000e-02" style="stop-color:#B58215"/>
								<stop  offset="0.15" style="stop-color:#BC8C24"/>
								<stop  offset="0.24" style="stop-color:#C89E3D"/>
								<stop  offset="0.33" style="stop-color:#D8B660"/>
								<stop  offset="0.43" style="stop-color:#EDD58C"/>
								<stop  offset="0.47" style="stop-color:#F8E6A4"/>
								<stop  offset="0.63" style="stop-color:#F8DD7B"/>
								<stop  offset="0.67" style="stop-color:#EDCE6A"/>
								<stop  offset="0.74" style="stop-color:#D4AB43"/>
								<stop  offset="0.82" style="stop-color:#C29327"/>
								<stop  offset="0.88" style="stop-color:#B78316"/>
								<stop  offset="0.93" style="stop-color:#B37E10"/>
							</linearGradient>
							<path class="st69" d="M891.6,179.2c-1.6-5.3-3.5-11.7-4.7-15.6c-0.6-1.6-1.4-4.2-2.1-5.9c-9.9-32.1-28.4-61.9-53.4-84.5v0.1
								c-8.7-7.7-18.8-14.5-28.6-20.6c0.2,0.4,0.2,0.8,0.2,1.2c0.8,0.2,1.6,0.6,2.3,1.1c-1.2-0.6-2.5-1-3.8-1.2
								c-6.6-6.4-15.8-9.3-24.1-12.9c-0.6,0.1-0.2,0.6-0.2,0.9c-8.3-4.1-17.3-8.7-26.6-9.2c-12.6-7.2-28.6-6.4-42.4-8.8
								c-4.2,0.3-33.9-4-18.4,4.2c21.2,10.5-17.2,8.7-25.1,11.5c-4.1,0.8,3,1.1,3.2,2.4c-2.7,3-7.3,1.8-11,2.7
								c2.9,0,5.7-0.3,8.5-0.8c-2.7,1.6-6.3,2.9-9.2,4.5c22,0.6,43.8-0.6,65.7,0.3c-8.2-0.9-16.3-1.8-24-3.4
								c29.8,2.3,60.4,4.9,88.7,15.4c-1.5-0.1-3-0.3-4.4-0.7c6.8,1.9,13.5,5.2,20.2,7.3c-0.6-0.1-2-0.6-3-0.8
								c15.7,7.5,30,17.7,42.1,30.2c-0.6-0.6-1.4-1.2-2.2-1.6c2.4,2.1,5.1,4.9,7.4,7.2c-10.2-9.8-20.9-19.8-33.1-27.1
								c-1.1-1.1-19.1-9.6-14.4-8.9c-9.2-3.2-18.3-6.5-27.6-9.3c0.4,0.1,0.8,0.2,1.2,0.3c-16.6-5.1-33.6-8.7-51-9
								c11.6,1.3,23.5,2.8,34.8,5.9l-24.6-1.6c9.2,1.1,19,1.8,27.4,5.7c-4.6-1.2-9.3-1.9-14-2c9.3,1.5,18.5,3.6,27.5,6.4
								c-10.1-3-20.9-3.7-31.1-6.3c1.2-0.1,2.5-0.1,3.7-0.1c-16.3-2.6-32.8-3.7-49.3-3.4c10.1,2.9,22.1-0.5,32,2.6
								c-36-0.2-75.1,0-110.6,9.2c12.9-0.6,25.5-1.5,38.3-1.1c-2.7,0.1-5.3,0.4-7.9,1c8.8-0.9,16.9-1.5,25.9-2.5l-0.1,0.1
								c20.1-1.7,40.2-0.6,59.2,1.7c-6,2.7-11.8-1.1-17.7-1.5c-14.4,1-29.4,1.8-43.5,3.5c5.5-0.7,10.9-1.3,16.4-1.8
								c-7.8,0.8-15.7,1-23.5,0.8c2.5-1.5,8-1,9.2-2.8c-6-0.7-62.2,9.3-34.3,13.5c14-2.2,27.2-3.3,40-4.3
								c24.8-1.1,48.9-6.7,73.6-4.9c20.1,4.3,41.1,3.9,59.6,13.7c54.5,27.8,76.7,91.1,88.8,147.5c-2.4-10.5-5.4-23-8.2-33.3l0.9,2.9
								c-0.6-2.7-2.1-8.5-3-11.8c0.5,1.4,1,3.1,1.4,4.8l-0.9-3.3c3.3,10.9,6.2,23.8,8.6,34.9c-2.4-13.7-5.7-27.9-9.5-41.4
								c4.5,14.1,7.7,30.2,10.2,44.9C899,210.7,895.3,194,891.6,179.2z"/>
							
								<linearGradient id="SVGID_71_" gradientUnits="userSpaceOnUse" x1="6043.0576" y1="-1394.3906" x2="6080.3774" y2="-1394.3906" gradientTransform="matrix(0.96 -0.27 0.27 0.96 -4759.4302 2999.2397)">
								<stop  offset="0" style="stop-color:#B37E10"/>
								<stop  offset="7.000000e-02" style="stop-color:#B58215"/>
								<stop  offset="0.15" style="stop-color:#BC8C24"/>
								<stop  offset="0.24" style="stop-color:#C89E3D"/>
								<stop  offset="0.33" style="stop-color:#D8B660"/>
								<stop  offset="0.43" style="stop-color:#EDD58C"/>
								<stop  offset="0.47" style="stop-color:#F8E6A4"/>
								<stop  offset="0.63" style="stop-color:#F8DD7B"/>
								<stop  offset="0.67" style="stop-color:#EDCE6A"/>
								<stop  offset="0.74" style="stop-color:#D4AB43"/>
								<stop  offset="0.82" style="stop-color:#C29327"/>
								<stop  offset="0.88" style="stop-color:#B78316"/>
								<stop  offset="0.93" style="stop-color:#B37E10"/>
							</linearGradient>
							<path class="st70" d="M715.4,22.8v-0.1c-13.6-2-26.8-3.2-40-4.2c2.4,0.7,4.8,1.6,6.9,2.9C688.9,18.1,704.5,21.7,715.4,22.8z"
								/>
							
								<linearGradient id="SVGID_72_" gradientUnits="userSpaceOnUse" x1="5946.1177" y1="-1398.5326" x2="5986.8374" y2="-1398.5326" gradientTransform="matrix(0.96 -0.27 0.27 0.96 -4759.4302 2999.2397)">
								<stop  offset="0" style="stop-color:#B37E10"/>
								<stop  offset="7.000000e-02" style="stop-color:#B58215"/>
								<stop  offset="0.15" style="stop-color:#BC8C24"/>
								<stop  offset="0.24" style="stop-color:#C89E3D"/>
								<stop  offset="0.33" style="stop-color:#D8B660"/>
								<stop  offset="0.43" style="stop-color:#EDD58C"/>
								<stop  offset="0.47" style="stop-color:#F8E6A4"/>
								<stop  offset="0.63" style="stop-color:#F8DD7B"/>
								<stop  offset="0.67" style="stop-color:#EDCE6A"/>
								<stop  offset="0.74" style="stop-color:#D4AB43"/>
								<stop  offset="0.82" style="stop-color:#C29327"/>
								<stop  offset="0.88" style="stop-color:#B78316"/>
								<stop  offset="0.93" style="stop-color:#B37E10"/>
							</linearGradient>
							<path class="st71" d="M624.2,44c-14.6-0.5-29.1-1.4-43.2-3.2C594.6,45.8,609.8,45.3,624.2,44z"/>
							
								<linearGradient id="SVGID_73_" gradientUnits="userSpaceOnUse" x1="6018.0273" y1="-1409.142" x2="6025.6973" y2="-1409.142" gradientTransform="matrix(0.96 -0.27 0.27 0.96 -4759.4302 2999.2397)">
								<stop  offset="0" style="stop-color:#B37E10"/>
								<stop  offset="7.000000e-02" style="stop-color:#B58215"/>
								<stop  offset="0.15" style="stop-color:#BC8C24"/>
								<stop  offset="0.24" style="stop-color:#C89E3D"/>
								<stop  offset="0.33" style="stop-color:#D8B660"/>
								<stop  offset="0.43" style="stop-color:#EDD58C"/>
								<stop  offset="0.47" style="stop-color:#F8E6A4"/>
								<stop  offset="0.63" style="stop-color:#F8DD7B"/>
								<stop  offset="0.67" style="stop-color:#EDCE6A"/>
								<stop  offset="0.74" style="stop-color:#D4AB43"/>
								<stop  offset="0.82" style="stop-color:#C29327"/>
								<stop  offset="0.88" style="stop-color:#B78316"/>
								<stop  offset="0.93" style="stop-color:#B37E10"/>
							</linearGradient>
							<path class="st72" d="M656.9,16.9l-8.2-0.7c2.8,0.8,5.5,1.6,8.2,2.2C656.9,17.9,656.4,17.3,656.9,16.9z"/>
							
								<linearGradient id="SVGID_74_" gradientUnits="userSpaceOnUse" x1="5998.8574" y1="-1418.016" x2="6004.3174" y2="-1418.016" gradientTransform="matrix(0.96 -0.27 0.27 0.96 -4759.4302 2999.2397)">
								<stop  offset="0" style="stop-color:#B37E10"/>
								<stop  offset="7.000000e-02" style="stop-color:#B58215"/>
								<stop  offset="0.15" style="stop-color:#BC8C24"/>
								<stop  offset="0.24" style="stop-color:#C89E3D"/>
								<stop  offset="0.33" style="stop-color:#D8B660"/>
								<stop  offset="0.43" style="stop-color:#EDD58C"/>
								<stop  offset="0.47" style="stop-color:#F8E6A4"/>
								<stop  offset="0.63" style="stop-color:#F8DD7B"/>
								<stop  offset="0.67" style="stop-color:#EDCE6A"/>
								<stop  offset="0.74" style="stop-color:#D4AB43"/>
								<stop  offset="0.82" style="stop-color:#C29327"/>
								<stop  offset="0.88" style="stop-color:#B78316"/>
								<stop  offset="0.93" style="stop-color:#B37E10"/>
							</linearGradient>
							<path class="st73" d="M630.6,15.6c1.1-0.5,2.2-0.8,3.4-1l-5.9-0.8C629,14.2,629.9,14.8,630.6,15.6z"/>
							
								<linearGradient id="SVGID_75_" gradientUnits="userSpaceOnUse" x1="5964.1274" y1="-1430.9347" x2="5972.4673" y2="-1430.9347" gradientTransform="matrix(0.96 -0.27 0.27 0.96 -4759.4302 2999.2397)">
								<stop  offset="0" style="stop-color:#B37E10"/>
								<stop  offset="7.000000e-02" style="stop-color:#B58215"/>
								<stop  offset="0.15" style="stop-color:#BC8C24"/>
								<stop  offset="0.24" style="stop-color:#C89E3D"/>
								<stop  offset="0.33" style="stop-color:#D8B660"/>
								<stop  offset="0.43" style="stop-color:#EDD58C"/>
								<stop  offset="0.47" style="stop-color:#F8E6A4"/>
								<stop  offset="0.63" style="stop-color:#F8DD7B"/>
								<stop  offset="0.67" style="stop-color:#EDCE6A"/>
								<stop  offset="0.74" style="stop-color:#D4AB43"/>
								<stop  offset="0.82" style="stop-color:#C29327"/>
								<stop  offset="0.88" style="stop-color:#B78316"/>
								<stop  offset="0.93" style="stop-color:#B37E10"/>
							</linearGradient>
							<path class="st74" d="M599.9,11l-8.8-0.6C593.9,10.6,597.2,12.7,599.9,11z"/>
							
								<linearGradient id="SVGID_76_" gradientUnits="userSpaceOnUse" x1="5777.7275" y1="-905.6905" x2="6149.2476" y2="-905.6905" gradientTransform="matrix(0.96 -0.27 0.27 0.96 -4759.4302 2999.2397)">
								<stop  offset="0" style="stop-color:#B37E10"/>
								<stop  offset="7.000000e-02" style="stop-color:#B58215"/>
								<stop  offset="0.15" style="stop-color:#BC8C24"/>
								<stop  offset="0.24" style="stop-color:#C89E3D"/>
								<stop  offset="0.33" style="stop-color:#D8B660"/>
								<stop  offset="0.43" style="stop-color:#EDD58C"/>
								<stop  offset="0.47" style="stop-color:#F8E6A4"/>
								<stop  offset="0.63" style="stop-color:#F8DD7B"/>
								<stop  offset="0.67" style="stop-color:#EDCE6A"/>
								<stop  offset="0.74" style="stop-color:#D4AB43"/>
								<stop  offset="0.82" style="stop-color:#C29327"/>
								<stop  offset="0.88" style="stop-color:#B78316"/>
								<stop  offset="0.93" style="stop-color:#B37E10"/>
							</linearGradient>
							<path class="st75" d="M804.2,321.8c-3.6,8.5-7.8,16.7-12.7,24.5c2.4-6.8,6.4-13,8.7-19.9c1.9-4.2-0.6-7.1-2.6-2
								c0-0.3,0.5-1.6,0.1-1.6c-3.7,11.8-10.3,22.9-16.6,33.5c5.7-10.6,10.6-21.5,14.6-32.8c0.3,1.2,1.2-1.6,0.3-1l0,0
								c1.8-6.3,4.6-13,5-19.3c-5.7,21.5-14,43.3-26,62.4c-0.8-0.1-1.6,0.2-2.3,0.6c4-6.1,7.7-12.5,11-19.1c1.2-1.9,3.3-5.9,4.4-7.9
								c1.2-3.1,4.4-6.9,4.1-10c-1.1-0.4-2.5,4.4-3.1,5.1c0.3-2.3-0.7-4.2-2.7-2.6c0.8-1.4,5.8-21.5,3.7-18.5
								c-3.5,17.1-9.6,28.6-20.2,42.6c-8.1,12.1-14.8,25.2-24.5,35.9c0.2-0.7,0.3-1.3-0.2-1.4c20.1-25.1,38.1-54.3,40.7-87.2
								c0.4-3.7-2.7-4.3-2.9-0.4c-6,46.4-35.3,85.2-65.7,118.8c6.7-9.1,14.8-18.1,20-27.9c-9.7,11.9-18.8,25-28.9,36.9
								c-5,3-14.6,14.2-19.4,21.2l2.4-2.8c-6.5,9.4-14.7,18.1-21.7,27.2l0.5-0.2c-0.9,1.1-1.6,1.6-2.6,2.9l0.9-0.9
								c-9.6,10.8-18.8,24.2-28.4,35.9c1-1.1,2-2.1,3-3.2l-0.4,0.6c0.1-0.1,0.5-0.7,0.6-0.8c-0.5,0.7-1,1.4-1.5,2.2l0.4-0.5
								C628,530,614,547.9,602.9,568c0.4-1.5,1-3,1.6-4.4c-3.3,6.3-7.3,12.8-9.4,19.6c0.1-0.6,0.6-2.1,0.9-3.1
								c-7.6,15.3-13.7,31.4-18.1,48c0.2-0.9,0.3-1.8,0.3-2.7c-0.8,3.1-1.5,6.8-2.1,9.9c2.5-16.8,9-32.6,15.5-48.2
								c0.5-1.4,5.3-11,4.4-7.1c3.7-9.2,8.3-17.9,13.8-26.1l-0.6,1.1c9.5-14.5,20.5-27.5,31-41.1c-7.7,8.4-15.1,17.8-22.3,26.8
								c4-7.4,8.6-14.5,13.7-21.1c-5.8,6.9-11.4,15.5-17.9,21.7c2.9-3.9,5.6-8,8.1-12.2c-5.7,7.5-11.3,15.4-16.7,23.8
								c5.7-9.2,11.3-19.6,18.5-27.2c-0.6,1.2-1.2,2.3-1.8,3.4c10.4-13.6,21.2-26,32-38.2c-8.2,4.9-14.1,17-21.9,23.3
								c20.8-30.1,50.7-54.2,70.4-84.8c-8.3,8.7-16.8,17.4-26.2,25.4c1.9-1.8,3.6-3.8,5-5.9c-5.7,6.4-11.3,12.2-17.1,19.1v-0.2
								c-13.4,15.1-27.8,29.4-40.6,45.1c1.5-6.8,7.8-9.6,12-14.3c8.6-12.3,18.7-24,28.1-35.2c-3.6,4.3-7.1,8.6-10.7,13
								c4.9-6.1,10.4-11.8,16.3-17c-1,2.9-5.2,6.2-5.1,8.5c4.1-3.3,39-47.6,17.4-33.5c-8.7,10.7-17.8,20.2-26.4,30.2
								C634,487.1,620.5,515,604,540.8c-30,62.7-44,140-25.7,209.1c-1.4-5.6-2.7-12.1-3.6-17.5c0.2,0.9,0.4,1.8,0.6,2.7
								c-0.3-1.7-1.1-7.8-1.5-10.9c0.3,1.4,0.5,2.9,0.7,4.5l-0.4-3.1c1.5,10.8,3.6,21.5,6.3,32c-2.9-12.4-4.9-25.1-6-37.8
								c1.5,13.7,3.8,27.4,6.8,40.8c-4.1-18.7-6.4-37.8-6.7-56.9c0,0,0.1,0.1,0.1,0.4c-0.1-1.5,0-3.9-0.1-5.6
								c1.5-29.1,6.2-58.4,18.4-85.1l0,0c3.9-8.9,8.5-18.5,14-26.7c-0.3,0.1-0.7,0-1-0.1c-0.3,0.7-0.6,1.5-1,2.1
								c0.5-1.1,0.9-2.3,1.2-3.5c2.7-2.4,4.9-5.1,6.8-8.2c0.8-2.3,8.7-10,6.9-11c5.5-5.9,12-11.5,16-18.5
								c7.8-5.2,13.8-12.3,21.9-21.7c6.8-6.1,13.2-12.6,19.2-19.5c2.7-4.5-12.7,1.7-12.2-0.3c0.1-2.1,0.7-4.2,1.8-6.1
								c5.7-9.5,16.1-14.8,24.1-22.2c28.8-24,59.5-47.2,83.3-76.5c10.9-12.8,18.5-27.3,24-42.5c-11.1,18.6-25.7,41.2-44,56
								c0.7-0.6,4.4-4.1,2.2-3.8c4-4.8,8-9.9,11.7-15c4.9-6,13.4-10.6,15.5-18.2c7.4-11.4,16.5-24,19.5-37.2c3.5-8.8,1.2-8-0.4,0.1
								c-6.5,12.5-12.4,25-20.8,35.7c7.8-12.9,15.9-27.2,20.5-41.7c-7.8,16.4-14.1,33.5-26.3,47.1c9.4-20.1,23.4-37.9,29-59.8
								C805.8,320.6,804.8,320,804.2,321.8z M651.3,502.8c-0.7,0.8-1.5,1.6-2.4,2.7C649.6,504.5,650.4,503.6,651.3,502.8
								L651.3,502.8z M643.8,511.8c0.4-0.6,2.2-2.8,2.6-3.2C645.6,509.5,644.6,511,643.8,511.8L643.8,511.8z M663.5,485.2l1.2-1.3
								c0,0-1.6,1.9-1.7,2l0.3-0.3c-3.9,4.7-7.6,9.7-11.7,14.4C655.5,495.1,659.3,490.3,663.5,485.2z"/>
							
								<linearGradient id="SVGID_77_" gradientUnits="userSpaceOnUse" x1="5749.1343" y1="-666.3878" x2="6250.7842" y2="-1087.2278" gradientTransform="matrix(0.96 -0.27 0.27 0.96 -4759.4302 2999.2397)">
								<stop  offset="0" style="stop-color:#B37E10"/>
								<stop  offset="7.000000e-02" style="stop-color:#B58215"/>
								<stop  offset="0.15" style="stop-color:#BC8C24"/>
								<stop  offset="0.24" style="stop-color:#C89E3D"/>
								<stop  offset="0.33" style="stop-color:#D8B660"/>
								<stop  offset="0.43" style="stop-color:#EDD58C"/>
								<stop  offset="0.47" style="stop-color:#F8E6A4"/>
								<stop  offset="0.63" style="stop-color:#F8DD7B"/>
								<stop  offset="0.67" style="stop-color:#EDCE6A"/>
								<stop  offset="0.74" style="stop-color:#D4AB43"/>
								<stop  offset="0.82" style="stop-color:#C29327"/>
								<stop  offset="0.88" style="stop-color:#B78316"/>
								<stop  offset="0.93" style="stop-color:#B37E10"/>
							</linearGradient>
							<path class="st76" d="M579.9,755.3C512.4,485,971.2,370.1,861,118.2c151.6,309.7-137.7,462.8-19,581.5l-255.3,82.9
								L579.9,755.3z"/>
							<g class="st77">
								
									<image style="overflow:visible;opacity:0.71;enable-background:new    ;" width="665" height="379" xlink:href="9A10850DE451D255.png"  transform="matrix(6.123234e-17 -1 0.9 5.510911e-17 572.51 783.14)">
								</image>
								
									<image style="overflow:visible;opacity:0.71;enable-background:new    ;" width="420" height="447" xlink:href="9A10850DE451D257.png"  transform="matrix(6.123234e-17 -1 0.9 5.510911e-17 285.18 209.14)">
								</image>
								
									<image style="overflow:visible;opacity:0.71;enable-background:new    ;" width="510" height="668" xlink:href="9A10850DE451D252.png"  transform="matrix(6.123234e-17 -1 0.9 5.510911e-17 306.79 512.14)">
								</image>
							</g>
							
								<linearGradient id="SVGID_78_" gradientUnits="userSpaceOnUse" x1="5789.8213" y1="-1302.2416" x2="5977.4614" y2="-1608.4115" gradientTransform="matrix(0.96 -0.27 0.27 0.96 -4759.4302 2999.2397)">
								<stop  offset="0" style="stop-color:#B37E10"/>
								<stop  offset="0.13" style="stop-color:#CA9E34"/>
								<stop  offset="0.32" style="stop-color:#EBCB67"/>
								<stop  offset="0.42" style="stop-color:#F8DD7B"/>
								<stop  offset="0.77" style="stop-color:#FFF1A4"/>
								<stop  offset="1" style="stop-color:#D6B355"/>
							</linearGradient>
							<path class="st78" d="M687.6,209.5C381.9,94.8,625.4-130.1,557.4-208.9l-270.5,87.8C260.4,104.9,481.5,159.4,687.6,209.5z"/>
							
								<linearGradient id="SVGID_79_" gradientUnits="userSpaceOnUse" x1="5671.7773" y1="-1484.1215" x2="5701.5176" y2="-1484.1215" gradientTransform="matrix(0.96 -0.27 0.27 0.96 -4759.4302 2999.2397)">
								<stop  offset="0" style="stop-color:#B37E10"/>
								<stop  offset="7.000000e-02" style="stop-color:#B58215"/>
								<stop  offset="0.15" style="stop-color:#BC8C24"/>
								<stop  offset="0.24" style="stop-color:#C89E3D"/>
								<stop  offset="0.33" style="stop-color:#D8B660"/>
								<stop  offset="0.43" style="stop-color:#EDD58C"/>
								<stop  offset="0.47" style="stop-color:#F8E6A4"/>
								<stop  offset="0.63" style="stop-color:#F8DD7B"/>
								<stop  offset="0.67" style="stop-color:#EDCE6A"/>
								<stop  offset="0.74" style="stop-color:#D4AB43"/>
								<stop  offset="0.82" style="stop-color:#C29327"/>
								<stop  offset="0.88" style="stop-color:#B78316"/>
								<stop  offset="0.93" style="stop-color:#B37E10"/>
							</linearGradient>
							<path class="st79" d="M304.4,30.2c-2.8-2.3-5.7-4.8-8.5-7c-1.5,0.8-4.1-2.5-6.1-2.6c3.9,4.3,8.3,8.2,13,11.5
								c-2.9-1.9-6.8-4.9-9.7-7c8.2,6,17.1,12.8,26.1,18.1c3.2,2.5,5.2,8.7,10.3,8.4C321,44.9,312.7,37.2,304.4,30.2z"/>
							
								<linearGradient id="SVGID_80_" gradientUnits="userSpaceOnUse" x1="5663.7974" y1="-1517.4159" x2="5666.3076" y2="-1517.4159" gradientTransform="matrix(0.96 -0.27 0.27 0.96 -4759.4302 2999.2397)">
								<stop  offset="0" style="stop-color:#B37E10"/>
								<stop  offset="7.000000e-02" style="stop-color:#B58215"/>
								<stop  offset="0.15" style="stop-color:#BC8C24"/>
								<stop  offset="0.24" style="stop-color:#C89E3D"/>
								<stop  offset="0.33" style="stop-color:#D8B660"/>
								<stop  offset="0.43" style="stop-color:#EDD58C"/>
								<stop  offset="0.47" style="stop-color:#F8E6A4"/>
								<stop  offset="0.63" style="stop-color:#F8DD7B"/>
								<stop  offset="0.67" style="stop-color:#EDCE6A"/>
								<stop  offset="0.74" style="stop-color:#D4AB43"/>
								<stop  offset="0.82" style="stop-color:#C29327"/>
								<stop  offset="0.88" style="stop-color:#B78316"/>
								<stop  offset="0.93" style="stop-color:#B37E10"/>
							</linearGradient>
							<path class="st80" d="M281.4,11.4c-1.1-0.9-2.2-1.8-3.4-2.7C279,9.7,280.2,10.6,281.4,11.4z"/>
							
								<linearGradient id="SVGID_81_" gradientUnits="userSpaceOnUse" x1="5710.5674" y1="-1457.2352" x2="5725.0576" y2="-1457.2352" gradientTransform="matrix(0.96 -0.27 0.27 0.96 -4759.4302 2999.2397)">
								<stop  offset="0" style="stop-color:#B37E10"/>
								<stop  offset="7.000000e-02" style="stop-color:#B58215"/>
								<stop  offset="0.15" style="stop-color:#BC8C24"/>
								<stop  offset="0.24" style="stop-color:#C89E3D"/>
								<stop  offset="0.33" style="stop-color:#D8B660"/>
								<stop  offset="0.43" style="stop-color:#EDD58C"/>
								<stop  offset="0.47" style="stop-color:#F8E6A4"/>
								<stop  offset="0.63" style="stop-color:#F8DD7B"/>
								<stop  offset="0.67" style="stop-color:#EDCE6A"/>
								<stop  offset="0.74" style="stop-color:#D4AB43"/>
								<stop  offset="0.82" style="stop-color:#C29327"/>
								<stop  offset="0.88" style="stop-color:#B78316"/>
								<stop  offset="0.93" style="stop-color:#B37E10"/>
							</linearGradient>
							<path class="st81" d="M337.6,47.1c5.4,5.4,12.4,8.5,18.6,12.7C349.9,55.9,344.4,50.2,337.6,47.1z"/>
							
								<linearGradient id="SVGID_82_" gradientUnits="userSpaceOnUse" x1="5697.2275" y1="-1482.2638" x2="5708.0176" y2="-1482.2638" gradientTransform="matrix(0.96 -0.27 0.27 0.96 -4759.4302 2999.2397)">
								<stop  offset="0" style="stop-color:#B37E10"/>
								<stop  offset="7.000000e-02" style="stop-color:#B58215"/>
								<stop  offset="0.15" style="stop-color:#BC8C24"/>
								<stop  offset="0.24" style="stop-color:#C89E3D"/>
								<stop  offset="0.33" style="stop-color:#D8B660"/>
								<stop  offset="0.43" style="stop-color:#EDD58C"/>
								<stop  offset="0.47" style="stop-color:#F8E6A4"/>
								<stop  offset="0.63" style="stop-color:#F8DD7B"/>
								<stop  offset="0.67" style="stop-color:#EDCE6A"/>
								<stop  offset="0.74" style="stop-color:#D4AB43"/>
								<stop  offset="0.82" style="stop-color:#C29327"/>
								<stop  offset="0.88" style="stop-color:#B78316"/>
								<stop  offset="0.93" style="stop-color:#B37E10"/>
							</linearGradient>
							<path class="st82" d="M328.9,37.4c1.3,1,2.7,2,4.1,3c-5.4-4.1-10.5-8.7-15.1-13.7C321.2,30.7,324.8,34.3,328.9,37.4z"/>
							
								<linearGradient id="SVGID_83_" gradientUnits="userSpaceOnUse" x1="5770.4072" y1="-1426.0724" x2="5784.0376" y2="-1426.0724" gradientTransform="matrix(0.96 -0.27 0.27 0.96 -4759.4302 2999.2397)">
								<stop  offset="0" style="stop-color:#B37E10"/>
								<stop  offset="7.000000e-02" style="stop-color:#B58215"/>
								<stop  offset="0.15" style="stop-color:#BC8C24"/>
								<stop  offset="0.24" style="stop-color:#C89E3D"/>
								<stop  offset="0.33" style="stop-color:#D8B660"/>
								<stop  offset="0.43" style="stop-color:#EDD58C"/>
								<stop  offset="0.47" style="stop-color:#F8E6A4"/>
								<stop  offset="0.63" style="stop-color:#F8DD7B"/>
								<stop  offset="0.67" style="stop-color:#EDCE6A"/>
								<stop  offset="0.74" style="stop-color:#D4AB43"/>
								<stop  offset="0.82" style="stop-color:#C29327"/>
								<stop  offset="0.88" style="stop-color:#B78316"/>
								<stop  offset="0.93" style="stop-color:#B37E10"/>
							</linearGradient>
							<path class="st83" d="M407.8,64.9c2.4,1.5,4.4,3.1,6.4,4.4c2.5-0.6,4.6,1.6,6.9,2.2c-5.6-2.8-11.2-5.5-16.6-8.6
								c0.5,0.5,0.9,1,1.3,1.5C406.5,64.5,407.3,64.9,407.8,64.9z"/>
							
								<linearGradient id="SVGID_84_" gradientUnits="userSpaceOnUse" x1="5899.5674" y1="-1338.0093" x2="5900.9673" y2="-1338.0093" gradientTransform="matrix(0.96 -0.27 0.27 0.96 -4759.4302 2999.2397)">
								<stop  offset="0" style="stop-color:#B37E10"/>
								<stop  offset="7.000000e-02" style="stop-color:#B58215"/>
								<stop  offset="0.15" style="stop-color:#BC8C24"/>
								<stop  offset="0.24" style="stop-color:#C89E3D"/>
								<stop  offset="0.33" style="stop-color:#D8B660"/>
								<stop  offset="0.43" style="stop-color:#EDD58C"/>
								<stop  offset="0.47" style="stop-color:#F8E6A4"/>
								<stop  offset="0.63" style="stop-color:#F8DD7B"/>
								<stop  offset="0.67" style="stop-color:#EDCE6A"/>
								<stop  offset="0.74" style="stop-color:#D4AB43"/>
								<stop  offset="0.82" style="stop-color:#C29327"/>
								<stop  offset="0.88" style="stop-color:#B78316"/>
								<stop  offset="0.93" style="stop-color:#B37E10"/>
							</linearGradient>
							<path class="st84" d="M554.5,118.2l1.6,0.5L554.5,118.2z"/>
							
								<linearGradient id="SVGID_85_" gradientUnits="userSpaceOnUse" x1="5897.7676" y1="-1339.0383" x2="5899.5776" y2="-1339.0383" gradientTransform="matrix(0.96 -0.27 0.27 0.96 -4759.4302 2999.2397)">
								<stop  offset="0" style="stop-color:#B37E10"/>
								<stop  offset="7.000000e-02" style="stop-color:#B58215"/>
								<stop  offset="0.15" style="stop-color:#BC8C24"/>
								<stop  offset="0.24" style="stop-color:#C89E3D"/>
								<stop  offset="0.33" style="stop-color:#D8B660"/>
								<stop  offset="0.43" style="stop-color:#EDD58C"/>
								<stop  offset="0.47" style="stop-color:#F8E6A4"/>
								<stop  offset="0.63" style="stop-color:#F8DD7B"/>
								<stop  offset="0.67" style="stop-color:#EDCE6A"/>
								<stop  offset="0.74" style="stop-color:#D4AB43"/>
								<stop  offset="0.82" style="stop-color:#C29327"/>
								<stop  offset="0.88" style="stop-color:#B78316"/>
								<stop  offset="0.93" style="stop-color:#B37E10"/>
							</linearGradient>
							<path class="st85" d="M554.5,118.2l-2.1-0.6C553.1,117.7,553.8,118,554.5,118.2z"/>
							
								<linearGradient id="SVGID_86_" gradientUnits="userSpaceOnUse" x1="5702.0073" y1="-1401.6284" x2="5900.0176" y2="-1401.6284" gradientTransform="matrix(0.96 -0.27 0.27 0.96 -4759.4302 2999.2397)">
								<stop  offset="0" style="stop-color:#B37E10"/>
								<stop  offset="7.000000e-02" style="stop-color:#B58215"/>
								<stop  offset="0.15" style="stop-color:#BC8C24"/>
								<stop  offset="0.24" style="stop-color:#C89E3D"/>
								<stop  offset="0.33" style="stop-color:#D8B660"/>
								<stop  offset="0.43" style="stop-color:#EDD58C"/>
								<stop  offset="0.47" style="stop-color:#F8E6A4"/>
								<stop  offset="0.63" style="stop-color:#F8DD7B"/>
								<stop  offset="0.67" style="stop-color:#EDCE6A"/>
								<stop  offset="0.74" style="stop-color:#D4AB43"/>
								<stop  offset="0.82" style="stop-color:#C29327"/>
								<stop  offset="0.88" style="stop-color:#B78316"/>
								<stop  offset="0.93" style="stop-color:#B37E10"/>
							</linearGradient>
							<path class="st86" d="M538,113c0.5,0.1,1.1,0.2,1.7,0.4c-1-0.4-4.6-1.5-6.4-2.1c0.8,0.2,1.7,0.5,2.7,0.8l-1.8-0.6
								c4,1,16.9,5.4,19,6.1c-6.7-2.7-15.2-5.6-22.3-7.9c7.7,2.1,16.6,5.7,24.1,8.5c-10.8-4.4-22.3-9-33.5-12.5c0-0.1,0.1,0,0.3,0
								c-0.9-0.2-2.3-0.8-3.3-1c-17.3-6.8-36-10.7-53.8-16.3c-6.2-1.8-13.2-3.7-19.2-6.1c0.1,0.2,0.2,0.5,0.2,0.8
								c0.5,0,1,0.1,1.5,0.3c-0.8-0.1-1.6-0.2-2.3-0.2c-4.2-3-10.1-4.3-14.7-6.5c-0.3,0.1-0.1,0.5-0.1,0.7c-4.9-2.6-9.9-6-15.4-7.3
								c-7.5-6.5-18.5-9.6-27-15.3c-3.1-1.1-13.3-9.1-7.5-0.2c9.9,13.6-12.2,0.4-16.8-1c-2.5-1,1.4,1.8,1.3,2.7
								c-2.5,0.9-4.7-1.6-7-2.4c1.6,1.1,3.3,2,5.1,2.7c-2.1,0-4.3-0.5-6.4-0.6c12.2,8.7,25.4,15.8,39.3,21.1
								c-5-2.4-9.7-5.3-14.2-8.6c17,10.2,36,17.1,55.1,21.9c-1,0.1-1.9,0-2.9-0.1c4.4,0.8,8.9,2.3,13.4,2.5h-2
								c10.5,2.3,21,4.5,31.1,6.3c-0.5-0.1-1.1-0.1-1.6,0c2,0.3,4.1,0.5,6,0.9c-11.9-1.5-23.6-3.7-35.3-6.6
								c-1.5-0.4-1.1-0.6-0.3-0.6c-6.2-0.7-12.3-2.1-18.2-4l0.8,0.2c-10.7-3.3-21.7-8-32.2-11.9c7,3.4,14.4,6.3,21.6,9.3
								c-5.3-1-10.6-2.4-15.7-4.2c5.8,2.4,12,4.1,17.5,7.3c-2.9-1.1-5.9-1.9-9-2.5c5.9,2.2,11.9,4.2,18,6c-6.8-1.9-14-3.2-20.4-6.5
								c0.8,0.1,1.6,0.3,2.4,0.4c-10.6-4-20.9-8.6-31-13.5c5.4,5.1,13.9,6,19.8,10c-23.4-7.2-46.4-23.5-68.8-33.2
								c7.4,5.2,14.9,10.1,22.2,15.5c-1.5-1-3.2-1.9-4.9-2.6c5.4,3,10.4,6,16,8.7H363c12.3,6.2,25,13.5,37.8,18.7
								c-4.5,0.7-8-3.3-11.6-5c-8.5-2.6-16.9-6.5-24.6-10.1c1,0.5,5.7,2.6,6.8,3.1c-5.2-2.2-10.1-5-14.6-8.2c1.9,0,5,2.4,6.2,1.8
								c-3.5-1.4-27.6-15-27.5-9.8c0.7,4.1,6.7,6,10,8c8.1,4.5,16.7,9.1,25.1,13c13.8,6.6,29,8.9,43.8,12.1
								c12.9,4.6,22.7,3.1,35.6,4c34.2,2,69.6,7.5,102.4,18.2C548.1,116.2,541.7,114.3,538,113z"/>
							
								<linearGradient id="SVGID_87_" gradientUnits="userSpaceOnUse" x1="5746.6475" y1="-1449.4774" x2="5763.2476" y2="-1449.4774" gradientTransform="matrix(0.96 -0.27 0.27 0.96 -4759.4302 2999.2397)">
								<stop  offset="0" style="stop-color:#B37E10"/>
								<stop  offset="7.000000e-02" style="stop-color:#B58215"/>
								<stop  offset="0.15" style="stop-color:#BC8C24"/>
								<stop  offset="0.24" style="stop-color:#C89E3D"/>
								<stop  offset="0.33" style="stop-color:#D8B660"/>
								<stop  offset="0.43" style="stop-color:#EDD58C"/>
								<stop  offset="0.47" style="stop-color:#F8E6A4"/>
								<stop  offset="0.63" style="stop-color:#F8DD7B"/>
								<stop  offset="0.67" style="stop-color:#EDCE6A"/>
								<stop  offset="0.74" style="stop-color:#D4AB43"/>
								<stop  offset="0.82" style="stop-color:#C29327"/>
								<stop  offset="0.88" style="stop-color:#B78316"/>
								<stop  offset="0.93" style="stop-color:#B37E10"/>
							</linearGradient>
							<path class="st87" d="M381.1,49.1c4.9,2.5,9.5,6.3,14.3,8.8v-0.1c-7-4.2-14.5-9.2-21.2-14c1.2,1.3,2.2,2.7,3.1,4.2
								C378.7,48.1,380,48.5,381.1,49.1z"/>
							
								<linearGradient id="SVGID_88_" gradientUnits="userSpaceOnUse" x1="5697.4575" y1="-1484.7991" x2="5714.1675" y2="-1484.7991" gradientTransform="matrix(0.96 -0.27 0.27 0.96 -4759.4302 2999.2397)">
								<stop  offset="0" style="stop-color:#B37E10"/>
								<stop  offset="7.000000e-02" style="stop-color:#B58215"/>
								<stop  offset="0.15" style="stop-color:#BC8C24"/>
								<stop  offset="0.24" style="stop-color:#C89E3D"/>
								<stop  offset="0.33" style="stop-color:#D8B660"/>
								<stop  offset="0.43" style="stop-color:#EDD58C"/>
								<stop  offset="0.47" style="stop-color:#F8E6A4"/>
								<stop  offset="0.63" style="stop-color:#F8DD7B"/>
								<stop  offset="0.67" style="stop-color:#EDCE6A"/>
								<stop  offset="0.74" style="stop-color:#D4AB43"/>
								<stop  offset="0.82" style="stop-color:#C29327"/>
								<stop  offset="0.88" style="stop-color:#B78316"/>
								<stop  offset="0.93" style="stop-color:#B37E10"/>
							</linearGradient>
							<path class="st88" d="M322,26.9c5,5.5,11.3,9.4,17.4,13.5c-7.9-6.5-15.6-13.3-23.1-20.2C318,22.5,319.9,24.8,322,26.9z"/>
							
								<linearGradient id="SVGID_89_" gradientUnits="userSpaceOnUse" x1="5736.5176" y1="-1470.7367" x2="5739.5576" y2="-1470.7367" gradientTransform="matrix(0.96 -0.27 0.27 0.96 -4759.4302 2999.2397)">
								<stop  offset="0" style="stop-color:#B37E10"/>
								<stop  offset="7.000000e-02" style="stop-color:#B58215"/>
								<stop  offset="0.15" style="stop-color:#BC8C24"/>
								<stop  offset="0.24" style="stop-color:#C89E3D"/>
								<stop  offset="0.33" style="stop-color:#D8B660"/>
								<stop  offset="0.43" style="stop-color:#EDD58C"/>
								<stop  offset="0.47" style="stop-color:#F8E6A4"/>
								<stop  offset="0.63" style="stop-color:#F8DD7B"/>
								<stop  offset="0.67" style="stop-color:#EDCE6A"/>
								<stop  offset="0.74" style="stop-color:#D4AB43"/>
								<stop  offset="0.82" style="stop-color:#C29327"/>
								<stop  offset="0.88" style="stop-color:#B78316"/>
								<stop  offset="0.93" style="stop-color:#B37E10"/>
							</linearGradient>
							<path class="st89" d="M364.6,36.4l-4.2-3.5c1.3,1.5,2.5,3.1,3.8,4.5C364.4,37.1,364.3,36.5,364.6,36.4z"/>
							
								<linearGradient id="SVGID_90_" gradientUnits="userSpaceOnUse" x1="5729.2476" y1="-1483.7708" x2="5731.2876" y2="-1483.7708" gradientTransform="matrix(0.96 -0.27 0.27 0.96 -4759.4302 2999.2397)">
								<stop  offset="0" style="stop-color:#B37E10"/>
								<stop  offset="7.000000e-02" style="stop-color:#B58215"/>
								<stop  offset="0.15" style="stop-color:#BC8C24"/>
								<stop  offset="0.24" style="stop-color:#C89E3D"/>
								<stop  offset="0.33" style="stop-color:#D8B660"/>
								<stop  offset="0.43" style="stop-color:#EDD58C"/>
								<stop  offset="0.47" style="stop-color:#F8E6A4"/>
								<stop  offset="0.63" style="stop-color:#F8DD7B"/>
								<stop  offset="0.67" style="stop-color:#EDCE6A"/>
								<stop  offset="0.74" style="stop-color:#D4AB43"/>
								<stop  offset="0.82" style="stop-color:#C29327"/>
								<stop  offset="0.88" style="stop-color:#B78316"/>
								<stop  offset="0.93" style="stop-color:#B37E10"/>
							</linearGradient>
							<path class="st90" d="M350.9,25.4c0.7,0.1,1.5,0.4,2.1,0.7l-2.9-2.9C350.5,23.9,350.8,24.6,350.9,25.4z"/>
							
								<linearGradient id="SVGID_91_" gradientUnits="userSpaceOnUse" x1="5715.2373" y1="-1505.2655" x2="5718.8076" y2="-1505.2655" gradientTransform="matrix(0.96 -0.27 0.27 0.96 -4759.4302 2999.2397)">
								<stop  offset="0" style="stop-color:#B37E10"/>
								<stop  offset="7.000000e-02" style="stop-color:#B58215"/>
								<stop  offset="0.15" style="stop-color:#BC8C24"/>
								<stop  offset="0.24" style="stop-color:#C89E3D"/>
								<stop  offset="0.33" style="stop-color:#D8B660"/>
								<stop  offset="0.43" style="stop-color:#EDD58C"/>
								<stop  offset="0.47" style="stop-color:#F8E6A4"/>
								<stop  offset="0.63" style="stop-color:#F8DD7B"/>
								<stop  offset="0.67" style="stop-color:#EDCE6A"/>
								<stop  offset="0.74" style="stop-color:#D4AB43"/>
								<stop  offset="0.82" style="stop-color:#C29327"/>
								<stop  offset="0.88" style="stop-color:#B78316"/>
								<stop  offset="0.93" style="stop-color:#B37E10"/>
							</linearGradient>
							<path class="st91" d="M335.5,9.7c-1.6-1.4-3.3-2.8-4.9-4.1C332.2,6.8,333.3,9.4,335.5,9.7z"/>
							
								<linearGradient id="SVGID_92_" gradientUnits="userSpaceOnUse" x1="5747.1377" y1="-1199.1593" x2="6216.2275" y2="-1195.0792" gradientTransform="matrix(0.96 -0.27 0.27 0.96 -4759.4302 2999.2397)">
								<stop  offset="0" style="stop-color:#B37E10"/>
								<stop  offset="0.15" style="stop-color:#B37E10"/>
								<stop  offset="0.42" style="stop-color:#E4C15C"/>
								<stop  offset="0.55" style="stop-color:#F8DD7B"/>
								<stop  offset="0.69" style="stop-color:#FFF6C4"/>
								<stop  offset="0.84" style="stop-color:#F8DD7B"/>
								<stop  offset="1" style="stop-color:#B37E10"/>
							</linearGradient>
							<path class="st92" d="M850.6,511.3C962.6,85.2,387.1,271.9,306.9,2.7C417.7,229.8,731.1-63.6,861,118.1
								C932.1,234.7,916.9,372.4,850.6,511.3z"/>
						</g>
					</g>
				</g>
			</g>
		</g>
	</g>
</g>
</svg>
