<?xml version="1.0" encoding="utf-8"?>
<!-- Generator: Adobe Illustrator 25.1.0, SVG Export Plug-In . SVG Version: 6.00 Build 0)  -->
<svg version="1.1" id="Layer_1" xmlns="http://www.w3.org/2000/svg" xmlns:xlink="http://www.w3.org/1999/xlink" x="0px" y="0px"
	 viewBox="0 0 206.8 20.6" style="enable-background:new 0 0 206.8 20.6;" xml:space="preserve">
<style type="text/css">
  @keyframes rotating{
    to{
      transform: rotate(360deg);
    }
  }
	.st0{clip-path:url(#SVGID_2_);}
	.st1{fill:url(#SVGID_3_);}
  #rectangle{
    transform-origin: center;
    animation: rotating 4s infinite linear;
  }
</style>
<g>
	<defs>
		<path id="SVGID_1_" d="M19,19.5c0.3,0.3,0.6,0.4,0.9,0.5v0.6h-8.8V20c0.5,0,1.1-0.1,1.6-0.3c0.3-0.1,0.5-0.4,0.5-0.8
			c0-0.5-0.1-0.9-0.3-1.4l-1.7-4.7H4.8l-0.8,2c-0.4,1-0.7,2.1-0.8,3.2c-0.1,0.6,0.2,1.1,0.6,1.5C4.5,19.8,5.1,20,5.8,20v0.6H0V20
			c1-0.2,1.8-1.2,2.5-3L9.1,0h2l7,18.1C18.3,18.6,18.6,19.1,19,19.5z M10.9,12.2L8,4.4l-3,7.8H10.9z M34.4,13.1
			c-0.6-1.5-1.3-2.2-2.1-2.2h-1.9v6.7c0,0.5,0,1.1,0.1,1.6c0.1,0.3,0.3,0.5,0.6,0.7c0.5,0.1,0.9,0.2,1.4,0.2v0.6h-8.9V20
			c0.5,0,0.9-0.1,1.4-0.2c0.3-0.1,0.5-0.4,0.6-0.7c0.1-0.5,0.2-1.1,0.2-1.6V3.1c0-0.5,0-1.1-0.2-1.6C25.5,1.2,25.3,1,25,0.9
			c-0.5-0.1-0.9-0.2-1.4-0.2V0.1h8.9c2.1-0.1,4.2,0.3,6,1.3c1.3,0.8,2.1,2.2,2,3.7c0,1.4-0.5,2.7-1.5,3.6c-1.4,1.2-3.2,1.9-5,2
			c1.4,0,2.8,0.5,4,1.4c1.1,1.1,1.9,2.5,2.3,4c0.3,1.1,0.8,2.2,1.4,3.2c0.4,0.3,0.8,0.5,1.3,0.7v0.6h-6.2
			C35.8,17.1,35,14.6,34.4,13.1L34.4,13.1z M30.4,3.1v7.1h1.2c1.6,0,2.7-0.4,3.2-1.3c0.7-1.1,1-2.3,0.9-3.5c0.1-1.3-0.2-2.5-0.8-3.6
			c-0.6-0.9-1.7-1.3-2.8-1.2c-0.4,0-0.8,0-1.2,0.2c-0.3,0.2-0.4,0.4-0.5,0.7C30.4,2.1,30.4,2.6,30.4,3.1L30.4,3.1z M64.1,19.5
			c0.2,0.3,0.6,0.4,0.9,0.5v0.6h-8.8V20c0.5,0,1.1-0.1,1.6-0.3c0.3-0.1,0.5-0.4,0.5-0.8c0-0.5-0.1-1-0.3-1.4l-1.7-4.7h-6.3l-0.8,2
			c-0.4,1-0.7,2.1-0.8,3.2c-0.1,0.6,0.2,1.1,0.7,1.5c0.6,0.3,1.2,0.5,1.9,0.5v0.6h-5.8V20c1-0.2,1.8-1.2,2.5-3l6.6-17h2l7,18.1
			C63.4,18.6,63.7,19.1,64.1,19.5z M56,12.2l-2.9-7.8l-3,7.8H56z M95.9,0.1v0.6c-0.6,0.2-1,0.6-1.4,1.1c-0.5,0.7-0.9,1.5-1.1,2.3
			l-5.1,16.5c-0.2,0-0.5,0-1,0s-0.8,0-1,0L82,7.7l-4.3,12.9c-0.2,0-0.6,0-1,0s-0.8,0-1,0L69.2,2.5c-0.2-0.5-0.4-1-0.8-1.4
			c-0.3-0.3-0.6-0.4-1-0.4V0.1h7.9v0.6c-0.6,0-1,0.4-1,1c0,0,0,0.1,0,0.1c0,0.4,0.1,0.9,0.2,1.3l4.2,12.2l2.9-8.6l-1.5-4.5
			c-0.1-0.5-0.4-0.9-0.7-1.2c-0.3-0.2-0.6-0.4-0.9-0.4V0.1h8.3v0.6c-0.5,0-1,0.1-1.5,0.2c-0.3,0.2-0.5,0.5-0.5,0.8
			c0,0.5,0.1,0.9,0.3,1.4l4,12.1l2.7-8.7c0.4-1.1,0.6-2.2,0.7-3.4c0.1-0.7-0.2-1.3-0.6-1.8c-0.5-0.4-1.2-0.7-1.9-0.6V0.1H95.9z
			 M117.2,19.5c0.3,0.3,0.6,0.4,0.9,0.5v0.6h-8.8V20c0.5,0,1.1-0.1,1.6-0.3c0.3-0.1,0.5-0.4,0.5-0.8c0-0.5-0.1-0.9-0.3-1.4l-1.7-4.7
			H103l-0.7,2c-0.5,1-0.7,2.1-0.8,3.2c-0.1,0.6,0.2,1.1,0.7,1.5c0.6,0.3,1.2,0.5,1.9,0.5v0.6h-5.8V20c1-0.2,1.8-1.2,2.5-3l6.6-17h2
			l7,18.1C116.5,18.6,116.8,19.1,117.2,19.5z M109.1,12.2l-2.9-7.8l-3,7.8H109.1z M140.9,0.6c-0.5,0-1,0.2-1.4,0.5
			c-0.3,0.3-0.5,0.7-0.6,1.1c-0.1,0.7-0.2,1.5-0.2,2.2v16.2h-1.5L124.7,4.7v11.1c0,0.8,0,1.7,0.2,2.5c0.1,0.5,0.4,0.9,0.8,1.2
			c0.6,0.3,1.2,0.5,1.9,0.5v0.6h-5.6V20c0.5,0,1-0.2,1.4-0.5c0.3-0.3,0.6-0.7,0.6-1.1c0.1-0.7,0.2-1.5,0.2-2.2v-13
			c0-0.5,0-1.1-0.2-1.6c-0.1-0.3-0.3-0.5-0.6-0.7c-0.4-0.1-0.9-0.2-1.4-0.2V0.1h5L138,13.9V4.8c0-0.8,0-1.7-0.2-2.5
			c-0.1-0.5-0.3-0.9-0.8-1.2c-0.6-0.3-1.2-0.5-1.9-0.5V0.1h5.6L140.9,0.6z M161.4,11.5c1.1,0.8,1.7,2.1,1.8,3.4
			c0.1,1.7-0.7,3.2-2.1,4.1c-1.8,1.1-3.8,1.6-5.9,1.5h-9.6V20c0.5,0,0.9-0.1,1.4-0.2c0.3-0.1,0.5-0.4,0.6-0.7
			c0.1-0.5,0.2-1.1,0.2-1.6V3.1c0-0.5,0-1.1-0.2-1.6c-0.1-0.3-0.3-0.5-0.6-0.7c-0.5-0.1-0.9-0.2-1.4-0.2V0.1h8.9
			c1.9-0.1,3.7,0.3,5.3,1.2c1.1,0.7,1.8,2,1.8,3.3c0,1.2-0.6,2.3-1.5,3.1c-1.2,1.1-2.7,1.8-4.3,2v0.1
			C157.9,9.8,159.8,10.4,161.4,11.5z M153,0.8c-0.3,0.2-0.4,0.4-0.5,0.7c-0.1,0.5-0.2,1-0.1,1.6v6.5h1.2c1,0.1,2.1-0.4,2.6-1.3
			c0.6-1.1,0.8-2.2,0.8-3.4c0.1-1.1-0.2-2.2-0.7-3.2c-0.5-0.7-1.3-1.1-2.1-1.1C153.8,0.6,153.4,0.7,153,0.8z M158.4,14.8
			c0.1-1.3-0.3-2.5-1.2-3.5c-1-0.9-2.3-1.3-3.6-1.2h-1.2v7.3c0,0.5,0,1,0.2,1.5c0.1,0.3,0.3,0.5,0.6,0.7c0.4,0.1,0.8,0.2,1.3,0.2
			C157,19.9,158.4,18.2,158.4,14.8L158.4,14.8z M184,20.5h-16V20c0.5,0,0.9-0.1,1.4-0.2c0.3-0.1,0.5-0.4,0.6-0.7
			c0.1-0.5,0.2-1.1,0.2-1.6V3.1c0-0.5,0-1.1-0.2-1.6c-0.1-0.3-0.3-0.5-0.6-0.7c-0.5-0.1-0.9-0.2-1.4-0.2V0.1h15.4
			c-0.1,1.6-0.2,3-0.2,4.3c0,0.7,0,1.3,0.1,2h-0.7c-0.1-1.6-0.6-3.1-1.6-4.3c-0.8-0.9-2-1.3-3.2-1.3h-1.2c-0.4,0-0.9,0-1.3,0.1
			c-0.3,0.1-0.5,0.3-0.6,0.6c-0.1,0.4-0.2,0.9-0.1,1.4V10h0.9c0.9,0.1,1.9-0.4,2.4-1.2c0.6-0.8,0.9-1.7,1.1-2.7h0.7
			c-0.1,0.8-0.1,1.7-0.1,2.7v1.4c0,1,0.1,2.4,0.2,4.1h-0.7c-0.4-2.5-1.6-3.8-3.5-3.8h-0.9v7.3c0,0.5,0,0.9,0.1,1.4
			c0.1,0.3,0.3,0.5,0.6,0.6c0.4,0.1,0.9,0.2,1.3,0.1h1.4c1.3,0,2.5-0.5,3.3-1.4c1-1.4,1.6-3,1.8-4.8h0.7c-0.1,0.6-0.1,1.4-0.1,2.4
			C183.8,17.6,183.9,19.1,184,20.5z M206.5,5c0,0.7,0,1.5,0.1,2.2H206c-0.2-1.8-0.9-3.5-1.9-5c-0.8-1-2-1.5-3.3-1.5h-0.7v16.5
			c0,0.6,0,1.2,0.2,1.8c0.2,0.4,0.5,0.6,0.9,0.7c0.7,0.2,1.3,0.2,2,0.2v0.6h-10.8V20c0.7,0,1.3-0.1,2-0.2c0.4-0.1,0.7-0.4,0.9-0.7
			c0.2-0.6,0.3-1.2,0.2-1.8V0.7h-0.6c-0.8,0-1.6,0.2-2.4,0.6c-0.7,0.5-1.3,1.2-1.7,2c-0.6,1.2-1,2.5-1.2,3.8H189
			c0.1-0.7,0.1-1.4,0.1-2.2c0-1.4-0.1-3.1-0.2-4.9h17.9C206.6,1.9,206.5,3.5,206.5,5z"/>
	</defs>
	<clipPath id="SVGID_2_">
		<use xlink:href="#SVGID_1_"  style="overflow:visible;"/>
	</clipPath>
	<g class="st0">
		
			<linearGradient id="SVGID_3_" gradientUnits="userSpaceOnUse" x1="-10.0977" y1="125.1727" x2="216.8477" y2="-101.7727" gradientTransform="matrix(1 0 0 -1 0 22)">
			<stop  offset="0" style="stop-color:#F9E8B2"/>
			<stop  offset="0.14" style="stop-color:#FFD13E"/>
			<stop  offset="0.27" style="stop-color:#FFE38A"/>
			<stop  offset="0.41" style="stop-color:#FFD13E"/>
			<stop  offset="0.53" style="stop-color:#FFF0CC"/>
			<stop  offset="0.65" style="stop-color:#FFE38A"/>
			<stop  offset="0.77" style="stop-color:#FFD13E"/>
			<stop  offset="0.87" style="stop-color:#F9E8B2"/>
			<stop  offset="1" style="stop-color:#FFD13E"/>
		</linearGradient>
		<rect id="rectangle" x="-10.1" y="-103.2" class="st1" width="226.9" height="226.9"/>
	</g>
</g>
</svg>
